<?xml version="1.0" encoding="UTF-8" standalone="no"?>
<!DOCTYPE svg PUBLIC "-//W3C//DTD SVG 1.0//EN" "http://www.w3.org/TR/2001/PR-SVG-20010719/DTD/svg10.dtd">
<svg width="25cm" height="15cm" viewBox="61 33 481 283" xmlns="http://www.w3.org/2000/svg" xmlns:xlink="http://www.w3.org/1999/xlink">
  <g>
    <path style="fill: #c9c9b6" d="M 91.684 159.172 L 125.679,159.172 L 111.386,173.514 L 77.3904,173.514 L 91.684,159.172z"/>
    <path style="fill: none; fill-opacity:0; stroke-width: 0.02; stroke: #494936" d="M 91.684 159.172 L 125.679,159.172 L 111.386,173.514 L 77.3904,173.514 L 91.684,159.172"/>
    <path style="fill: none; fill-opacity:0; stroke-width: 0.02; stroke: #dbdbce" d="M 92.9892 171.092 L 92.9892,171.168 L 93.003,171.23 L 93.0239,171.314 L 93.0516,171.397 L 93.0933,171.46 L 93.1419,171.536 L 93.2044,171.605 L 93.2668,171.668 L 93.3293,171.744 L 93.4126,171.821 L 93.4959,171.883 L 93.5862,171.939 L 93.6903,171.994 L 93.7875,172.057 L 93.9124,172.105 L 94.0235,172.168 L 94.1485,172.216 L 94.2873,172.265 L 94.4262,172.306 L 94.5581,172.348 L 94.7038,172.39 L 94.8496,172.431 L 95.0023,172.452 L 95.1689,172.48 L 95.3286,172.494 L 95.4952,172.522 L 95.6479,172.543 L 95.8215,172.563 L 95.9951,172.57 L 96.1617,172.577 L 96.3283,172.577"/>
    <path style="fill: none; fill-opacity:0; stroke-width: 0.02; stroke: #dbdbce" d="M 95.9603 172.577 L 96.1269,172.577 L 96.2866,172.57 L 96.4463,172.556 L 96.6129,172.536 L 96.7795,172.522 L 96.9322,172.494 L 97.085,172.48 L 97.2446,172.445 L 97.3904,172.411 L 97.5431,172.369 L 97.675,172.327 L 97.8139,172.286 L 97.9458,172.237 L 98.0707,172.188 L 98.1818,172.14 L 98.2998,172.084 L 98.4109,172.022 L 98.5081,171.966 L 98.6053,171.897 L 98.6886,171.827 L 98.7649,171.758 L 98.8274,171.696 L 98.8968,171.619 L 98.9524,171.543 L 98.994,171.48 L 99.0426,171.404 L 99.0634,171.314 L 99.0843,171.237 L 99.1051,171.168 L 99.112,171.092"/>
    <path style="fill: none; fill-opacity:0; stroke-width: 0.02; stroke: #dbdbce" d="M 96.6962 168.308 L 96.5226,168.308 L 96.356,168.315 L 96.1825,168.315 L 96.0298,168.329 L 95.8632,168.35 L 95.6965,168.363 L 95.5369,168.377 L 95.3703,168.412 L 95.2245,168.44 L 95.0787,168.461 L 94.9329,168.495 L 94.7871,168.537 L 94.6552,168.572 L 94.5303,168.613 L 94.4053,168.669 L 94.2665,168.711 L 94.1693,168.759 L 94.0582,168.801 L 93.9541,168.856 L 93.8708,168.919 L 93.7805,168.974 L 93.7042,169.023 L 93.6278,169.085 L 93.5723,169.148 L 93.5167,169.217 L 93.4612,169.28 L 93.4334,169.335 L 93.3987,169.405 L 93.3779,169.46 L 93.371,169.537 L 93.364,169.592"/>
    <path style="fill: none; fill-opacity:0; stroke-width: 0.02; stroke: #dbdbce" d="M 99.473 169.592 L 99.473,169.53 L 99.4661,169.46 L 99.4383,169.398 L 99.4105,169.321 L 99.3758,169.266 L 99.3203,169.19 L 99.2647,169.134 L 99.2092,169.065 L 99.1259,169.016 L 99.0634,168.947 L 98.9801,168.891 L 98.8691,168.842 L 98.7788,168.773 L 98.6747,168.738 L 98.5636,168.683 L 98.4386,168.627 L 98.3067,168.586 L 98.1748,168.544 L 98.043,168.509 L 97.9041,168.481 L 97.7583,168.447 L 97.6056,168.412 L 97.4598,168.391 L 97.3071,168.363 L 97.1544,168.35 L 96.9947,168.329 L 96.8281,168.315 L 96.6545,168.315 L 96.4879,168.308 L 96.3283,168.308"/>
    <path style="fill: #a5a585" d="M 77.3904 175 L 111.386,175 L 111.386,173.514 L 77.3904,173.514 L 77.3904,175z"/>
    <path style="fill: none; fill-opacity:0; stroke-width: 0.02; stroke: #494936" d="M 77.3904 175 L 111.386,175 L 111.386,173.514 L 77.3904,173.514 L 77.3904,175"/>
    <path style="fill: #a5a585" d="M 91.684 159.172 L 125.679,159.172 L 125.679,135.916 L 91.684,135.916 L 91.684,159.172z"/>
    <path style="fill: none; fill-opacity:0; stroke-width: 0.02; stroke: #494936" d="M 91.684 159.172 L 125.679,159.172 L 125.679,135.916 L 91.684,135.916 L 91.684,159.172"/>
    <path style="fill: #7a7a5a" d="M 126.609 158.256 L 126.609,135 L 125.679,135.916 L 125.679,159.172 L 126.609,158.256z"/>
    <path style="fill: none; fill-opacity:0; stroke-width: 0.02; stroke: #494936" d="M 126.609 158.256 L 126.609,135 L 125.679,135.916 L 125.679,159.172 L 126.609,158.256"/>
    <path style="fill: #ffffff" d="M 93.364 157.694 L 124.013,157.694 L 124.013,137.784 L 93.364,137.784 L 93.364,157.694z"/>
    <path style="fill: none; fill-opacity:0; stroke-width: 0.02; stroke: #494936" d="M 93.364 157.694 L 124.013,157.694 L 124.013,137.784 L 93.364,137.784 L 93.364,157.694"/>
    <path style="fill: #93936c" d="M 93.364 160.297 L 121.958,160.297 L 114.53,167.746 L 85.936,167.746 L 93.364,160.297z"/>
    <path style="fill: none; fill-opacity:0; stroke-width: 0.02; stroke: #494936" d="M 93.364 160.297 L 121.958,160.297 L 114.53,167.746 L 85.936,167.746 L 93.364,160.297"/>
    <path style="fill: #7a7a5a" d="M 97.8139 170.62 L 97.8139,170.578 L 97.8069,170.536 L 97.8,170.495 L 97.7792,170.446 L 97.7722,170.404 L 97.7444,170.37 L 97.7306,170.328 L 97.6958,170.3 L 97.6611,170.259 L 97.6403,170.217 L 97.6056,170.182 L 97.564,170.148 L 97.5223,170.106 L 97.4737,170.071 L 97.4321,170.05 L 97.3835,170.016 L 97.3279,169.988 L 97.2654,169.967 L 97.2168,169.932 L 97.1544,169.918 L 97.0919,169.891 L 97.0364,169.877 L 96.9669,169.856 L 96.9045,169.842 L 96.8281,169.828 L 96.7656,169.807 L 96.6962,169.8 L 96.6337,169.8 L 96.5643,169.793 L 96.481,169.793 L 96.4255,169.793 L 96.4255,169.793 L 96.3491,169.793 L 96.2727,169.793 L 96.2103,169.8 L 96.1408,169.8 L 96.0784,169.807 L 96.002,169.828 L 95.9395,169.842 L 95.8701,169.856 L 95.8076,169.877 L 95.7451,169.891 L 95.6896,169.918 L 95.6202,169.932 L 95.5716,169.967 L 95.5161,169.988 L 95.4605,170.016 L 95.4119,170.05 L 95.3703,170.071 L 95.3217,170.106 L 95.28,170.148 L 95.2453,170.182 L 95.1967,170.217 L 95.1759,170.259 L 95.1342,170.3 L 95.1134,170.328 L 95.0926,170.37 L 95.0718,170.404 L 95.0579,170.446 L 95.0509,170.495 L 95.0371,170.536 L 95.0232,170.578 L 95.0232,170.62 L 95.0232,170.62 L 95.0232,170.668 L 95.0371,170.71 L 95.0509,170.751 L 95.0579,170.793 L 95.0718,170.835 L 95.0926,170.869 L 95.1134,170.918 L 95.1342,170.953 L 95.1759,170.994 L 95.1967,171.022 L 95.2453,171.064 L 95.28,171.099 L 95.3217,171.14 L 95.3703,171.168 L 95.4119,171.196 L 95.4605,171.23 L 95.5161,171.258 L 95.5716,171.279 L 95.6202,171.314 L 95.6896,171.328 L 95.7451,171.355 L 95.8076,171.369 L 95.8701,171.39 L 95.9395,171.404 L 96.002,171.418 L 96.0784,171.432 L 96.1408,171.446 L 96.2103,171.446 L 96.2727,171.446 L 96.3491,171.453 L 96.4255,171.453 L 96.4255,171.453 L 96.481,171.453 L 96.5643,171.446 L 96.6337,171.446 L 96.6962,171.446 L 96.7656,171.432 L 96.8281,171.418 L 96.9045,171.404 L 96.9669,171.39 L 97.0364,171.369 L 97.0919,171.355 L 97.1544,171.328 L 97.2168,171.314 L 97.2654,171.279 L 97.3279,171.258 L 97.3835,171.23 L 97.4321,171.196 L 97.4737,171.168 L 97.5223,171.14 L 97.564,171.099 L 97.6056,171.064 L 97.6403,171.022 L 97.6611,170.994 L 97.6958,170.953 L 97.7306,170.918 L 97.7444,170.869 L 97.7722,170.835 L 97.7792,170.793 L 97.8,170.751 L 97.8069,170.71 L 97.8139,170.668 L 97.8139,170.62z"/>
    <path style="fill: none; fill-opacity:0; stroke-width: 0.02; stroke: #dbdbce" d="M 97.6334 170.536 L 97.6334,170.495 L 97.6264,170.453 L 97.6264,170.418 L 97.6056,170.39 L 97.5917,170.335 L 97.5848,170.314 L 97.5501,170.272 L 97.5223,170.231 L 97.5015,170.203 L 97.4737,170.175 L 97.4321,170.148 L 97.3973,170.099 L 97.3557,170.071 L 97.314,170.05 L 97.2793,170.016 L 97.2238,169.988 L 97.1821,169.974 L 97.1335,169.939 L 97.085,169.925 L 97.0225,169.898 L 96.9669,169.884 L 96.9045,169.87 L 96.8489,169.849 L 96.7864,169.835 L 96.724,169.828 L 96.6545,169.807 L 96.599,169.8 L 96.5226,169.793 L 96.4671,169.793 L 96.3977,169.793 L 96.3352,169.793 L 96.3352,169.793 L 96.2658,169.793 L 96.2033,169.793 L 96.1339,169.793 L 96.0784,169.8 L 96.0089,169.807 L 95.9534,169.828 L 95.877,169.835 L 95.8215,169.849 L 95.7729,169.87 L 95.7035,169.884 L 95.6479,169.898 L 95.5785,169.925 L 95.5438,169.939 L 95.4813,169.974 L 95.4397,169.988 L 95.3911,170.016 L 95.3494,170.05 L 95.3078,170.071 L 95.2661,170.099 L 95.2314,170.148 L 95.1967,170.175 L 95.1689,170.203 L 95.1342,170.231 L 95.1204,170.272 L 95.0926,170.314 L 95.0787,170.335 L 95.0648,170.39 L 95.0509,170.418 L 95.044,170.453 L 95.0371,170.495 L 95.0371,170.536 L 95.0371,170.536 L 95.0371,170.571 L 95.044,170.613 L 95.0509,170.654 L 95.0648,170.675 L 95.0787,170.717 L 95.0926,170.758 L 95.1204,170.793 L 95.1342,170.828 L 95.1689,170.869 L 95.1967,170.89 L 95.2314,170.925 L 95.2661,170.96 L 95.3078,170.994 L 95.3494,171.015 L 95.3911,171.05 L 95.4397,171.071 L 95.4813,171.099 L 95.5438,171.126 L 95.5785,171.14 L 95.6479,171.168 L 95.7035,171.189 L 95.7729,171.196 L 95.8215,171.217 L 95.877,171.23 L 95.9534,171.237 L 96.0089,171.258 L 96.0784,171.272 L 96.1339,171.272 L 96.2033,171.272 L 96.2658,171.272 L 96.3352,171.272 L 96.3352,171.272 L 96.3977,171.272 L 96.4671,171.272 L 96.5226,171.272 L 96.599,171.272 L 96.6545,171.258 L 96.724,171.237 L 96.7864,171.23 L 96.8489,171.217 L 96.9045,171.196 L 96.9669,171.189 L 97.0225,171.168 L 97.085,171.14 L 97.1335,171.126 L 97.1821,171.099 L 97.2238,171.071 L 97.2793,171.05 L 97.314,171.015 L 97.3557,170.994 L 97.3973,170.96 L 97.4321,170.925 L 97.4737,170.89 L 97.5015,170.869 L 97.5223,170.828 L 97.5501,170.793 L 97.5848,170.758 L 97.5917,170.717 L 97.6056,170.675 L 97.6264,170.654 L 97.6264,170.613 L 97.6334,170.571 L 97.6334,170.536"/>
    <path style="fill: none; fill-opacity:0; stroke-width: 0.02; stroke: #626248" d="M 93.1835 171.272 L 93.1835,171.355 L 93.1974,171.418 L 93.2252,171.494 L 93.246,171.578 L 93.2877,171.647 L 93.3293,171.709 L 93.3918,171.786 L 93.4543,171.862 L 93.5237,171.925 L 93.5931,171.994 L 93.6834,172.057 L 93.7667,172.126 L 93.8777,172.182 L 93.9819,172.237 L 94.0929,172.286 L 94.2109,172.348 L 94.3428,172.397 L 94.4609,172.445 L 94.6136,172.487 L 94.7524,172.529 L 94.8982,172.577 L 95.044,172.612 L 95.1967,172.633 L 95.3494,172.661 L 95.5161,172.688 L 95.6757,172.702 L 95.8354,172.73 L 96.002,172.744 L 96.1755,172.751 L 96.3422,172.751 L 96.5088,172.751"/>
    <path style="fill: none; fill-opacity:0; stroke-width: 0.02; stroke: #626248" d="M 96.1339 172.751 L 96.3074,172.751 L 96.4671,172.751 L 96.6407,172.737 L 96.7934,172.716 L 96.9531,172.702 L 97.1197,172.688 L 97.2654,172.661 L 97.4251,172.626 L 97.564,172.591 L 97.7167,172.563 L 97.8625,172.522 L 97.9944,172.48 L 98.1263,172.431 L 98.2512,172.369 L 98.3762,172.32 L 98.4803,172.265 L 98.5914,172.209 L 98.6886,172.14 L 98.7788,172.084 L 98.8691,172.008 L 98.9454,171.952 L 99.0218,171.883 L 99.0843,171.8 L 99.1259,171.723 L 99.1884,171.661 L 99.2162,171.578 L 99.2509,171.501 L 99.2786,171.418 L 99.2786,171.355 L 99.2925,171.272"/>
    <path style="fill: none; fill-opacity:0; stroke-width: 0.02; stroke: #626248" d="M 96.8767 168.488 L 96.717,168.488 L 96.5504,168.495 L 96.3838,168.495 L 96.2172,168.509 L 96.0436,168.53 L 95.877,168.537 L 95.7313,168.565 L 95.5646,168.586 L 95.4119,168.627 L 95.2661,168.641 L 95.1204,168.683 L 94.9815,168.711 L 94.8427,168.759 L 94.7177,168.801 L 94.5928,168.842 L 94.4609,168.884 L 94.3567,168.933 L 94.2457,168.981 L 94.1485,169.044 L 94.0582,169.099 L 93.9749,169.148 L 93.8916,169.217 L 93.8083,169.266 L 93.7597,169.321 L 93.7042,169.398 L 93.6556,169.453 L 93.6139,169.523 L 93.5862,169.578 L 93.5653,169.641 L 93.5584,169.717 L 93.5515,169.787"/>
    <path style="fill: none; fill-opacity:0; stroke-width: 0.02; stroke: #626248" d="M 99.6674 169.787 L 99.6535,169.71 L 99.6466,169.641 L 99.6327,169.578 L 99.598,169.509 L 99.5563,169.446 L 99.5077,169.377 L 99.4522,169.321 L 99.3897,169.259 L 99.3203,169.19 L 99.237,169.134 L 99.1537,169.072 L 99.0634,169.016 L 98.9524,168.967 L 98.8552,168.919 L 98.7372,168.87 L 98.6261,168.815 L 98.5011,168.773 L 98.3692,168.738 L 98.2234,168.697 L 98.0846,168.669 L 97.9458,168.627 L 97.8,168.599 L 97.6473,168.572 L 97.4806,168.544 L 97.3349,168.53 L 97.1752,168.509 L 97.0086,168.495 L 96.835,168.495 L 96.6823,168.488 L 96.5088,168.488"/>
    <path style="fill: #7a7a5a" d="M 125.679 160.477 L 111.386,174.82 L 111.386,173.514 L 125.679,159.172 L 125.679,160.477z"/>
    <path style="fill: none; fill-opacity:0; stroke-width: 0.02; stroke: #494936" d="M 125.679 160.477 L 111.386,174.82 L 111.386,173.514 L 125.679,159.172 L 125.679,160.477"/>
    <path style="fill: #7a7a5a" d="M 120.854 158.075 L 120.854,158.429 L 123.638,158.429 L 123.638,158.075 L 120.854,158.075z"/>
    <path style="fill: none; fill-opacity:0; stroke-width: 0.02; stroke: #494936" d="M 120.854 158.075 L 120.854,158.429 L 123.638,158.429 L 123.638,158.075 L 120.854,158.075"/>
    <path style="fill: none; fill-opacity:0; stroke-width: 0.02; stroke: #000000" d="M 120.091 162.157 L 91.684,162.157"/>
    <path style="fill: none; fill-opacity:0; stroke-width: 0.02; stroke: #000000" d="M 118.244 164.025 L 89.8375,164.025"/>
    <path style="fill: none; fill-opacity:0; stroke-width: 0.02; stroke: #000000" d="M 116.391 165.885 L 87.977,165.885"/>
    <path style="fill: #c9c9b6" d="M 92.6143 135 L 126.609,135 L 125.679,135.916 L 91.684,135.916 L 92.6143,135z"/>
    <path style="fill: none; fill-opacity:0; stroke-width: 0.02; stroke: #494936" d="M 92.6143 135 L 126.609,135 L 125.679,135.916 L 91.684,135.916 L 92.6143,135"/>
  </g>
  <text font-size="12.8" style="fill: #000000;text-anchor:end;font-family:sans-serif;font-style:normal;font-weight:normal" x="92.6144" y="131.95">
    <tspan x="92.6144" y="131.95">Alice</tspan>
  </text>
  <g>
    <path style="fill: #b7b79d" d="M 279.352 85.3929 L 279.352,54.54 L 291.806,54.54 L 291.806,85.3929 L 279.352,85.3929z"/>
    <path style="fill: none; fill-opacity:0; stroke-width: 0.02; stroke: #494936" d="M 279.352 85.3929 L 279.352,54.54 L 291.806,54.54 L 291.806,85.3929 L 279.352,85.3929"/>
    <path style="fill: #a5a585" d="M 291.806 85.3929 L 291.806,54.54 L 304.266,54.54 L 304.266,85.3929 L 291.806,85.3929z"/>
    <path style="fill: none; fill-opacity:0; stroke-width: 0.02; stroke: #494936" d="M 291.806 85.3929 L 291.806,54.54 L 304.266,54.54 L 304.266,85.3929 L 291.806,85.3929"/>
    <path style="fill: #7a7a5a" d="M 310.766 78.8479 L 310.766,48 L 304.266,54.54 L 304.266,85.3929 L 310.766,78.8479z"/>
    <path style="fill: none; fill-opacity:0; stroke-width: 0.02; stroke: #494936" d="M 310.766 78.8479 L 310.766,48 L 304.266,54.54 L 304.266,85.3929 L 310.766,78.8479"/>
    <path style="fill: #c9c9b6" d="M 285.852 48 L 279.352,54.54 L 304.266,54.54 L 310.766,48 L 285.852,48z"/>
    <path style="fill: none; fill-opacity:0; stroke-width: 0.02; stroke: #494936" d="M 285.852 48 L 279.352,54.54 L 304.266,54.54 L 310.766,48 L 285.852,48"/>
    <path style="fill: none; fill-opacity:0; stroke-width: 0.02; stroke: #7a7a5a" d="M 297.567 48.7449 L 292.551,53.7952"/>
    <path style="fill: #b7b79d" d="M 285.664 85.1943 L 279.352,85.1943 L 279.362,85.3333 L 279.387,85.4773 L 279.422,85.6164 L 279.481,85.7604 L 279.556,85.8945 L 279.64,86.0335 L 279.749,86.1676 L 279.868,86.2967 L 279.993,86.4209 L 280.142,86.55 L 280.305,86.6791 L 280.484,86.7883 L 280.673,86.9025 L 280.877,87.0118 L 281.09,87.121 L 281.314,87.2204 L 281.557,87.3197 L 281.8,87.3991 L 282.058,87.4885 L 282.327,87.568 L 282.6,87.6325 L 282.883,87.707 L 283.181,87.7666 L 283.474,87.8163 L 283.772,87.8659 L 284.084,87.8957 L 284.392,87.9354 L 284.71,87.9553 L 285.028,87.9752 L 285.346,87.9851 L 285.664,87.9901 L 285.981,87.9851 L 286.299,87.9752 L 286.617,87.9553 L 286.935,87.9354 L 287.243,87.8957 L 287.556,87.8659 L 287.854,87.8163 L 288.147,87.7666 L 288.444,87.707 L 288.728,87.6325 L 289.001,87.568 L 289.269,87.4885 L 289.527,87.3991 L 289.77,87.3197 L 290.014,87.2204 L 290.237,87.121 L 290.446,87.0118 L 290.654,86.9025 L 290.843,86.7883 L 291.022,86.6791 L 291.186,86.55 L 291.33,86.4209 L 291.454,86.2967 L 291.578,86.1676 L 291.687,86.0335 L 291.772,85.8945 L 291.841,85.7604 L 291.906,85.6164 L 291.935,85.4773 L 291.965,85.3333 L 291.975,85.1943 L 285.664,85.1943z"/>
    <path style="fill: none; fill-opacity:0; stroke-width: 0.02; stroke: #494936" d="M 279.352 85.1943 L 279.362,85.3333 L 279.387,85.4773 L 279.422,85.6164 L 279.481,85.7604 L 279.556,85.8945 L 279.64,86.0335 L 279.749,86.1676 L 279.868,86.2967 L 279.993,86.4209 L 280.142,86.55 L 280.305,86.6791 L 280.484,86.7883 L 280.673,86.9025 L 280.877,87.0118 L 281.095,87.121 L 281.318,87.2204 L 281.557,87.3197 L 281.8,87.3991 L 282.063,87.4885 L 282.332,87.568 L 282.605,87.6325 L 282.883,87.707 L 283.181,87.7666 L 283.474,87.8163 L 283.777,87.8659 L 284.089,87.8957 L 284.392,87.9354 L 284.71,87.9553 L 285.028,87.9752 L 285.346,87.9851 L 285.669,87.9901 L 285.986,87.9851 L 286.304,87.9752 L 286.622,87.9553 L 286.94,87.9354 L 287.243,87.8957 L 287.556,87.8659 L 287.859,87.8163 L 288.156,87.7666 L 288.449,87.707 L 288.728,87.6325 L 289.001,87.568 L 289.269,87.4885 L 289.532,87.3991 L 289.78,87.3197 L 290.014,87.2204 L 290.237,87.121 L 290.456,87.0118 L 290.659,86.9025 L 290.848,86.7883 L 291.027,86.6791 L 291.191,86.55 L 291.34,86.4209 L 291.464,86.2967 L 291.588,86.1676 L 291.687,86.0335 L 291.777,85.8945 L 291.856,85.7604 L 291.906,85.6164 L 291.945,85.4773 L 291.975,85.3333 L 291.98,85.1943"/>
    <path style="fill: #93936c" d="M 288.092 56.9683 L 288.092,58.473 L 288.092,60.1515 L 288.092,62.2073 L 288.092,64.2632 L 288.092,68.9361 L 288.092,73.7927 L 288.092,76.0422 L 288.092,78.2818 L 288.092,80.1539 L 288.092,81.8374 L 288.092,83.3371 L 288.092,84.4494 L 288.092,85.0155 L 288.092,85.3929 L 291.806,85.3929 L 291.806,54.7238 L 291.623,54.7238 L 291.806,54.9174 L 291.806,55.1012 L 291.255,55.6623 L 290.317,56.2235 L 289.204,56.5959 L 288.092,56.9683z"/>
    <path style="fill: #93936c" d="M 288.092 87.6325 L 289.393,87.2551 L 290.505,86.6989 L 291.061,86.5053 L 291.439,86.1328 L 291.623,85.5767 L 291.806,85.1993 L 291.439,85.1993 L 291.061,85.1993 L 290.505,85.1993 L 289.393,85.1993 L 288.092,85.1993 L 288.092,85.9491 L 288.092,86.6989 L 288.092,87.0714 L 288.092,87.4488 L 288.092,87.6325z"/>
    <path style="fill: #c9c9b6" d="M 279.908 54.1676 L 279.352,54.7238 L 291.806,54.7238 L 291.806,54.1676 L 279.908,54.1676z"/>
    <path style="fill: #c9c9b6" d="M 285.664 54.5351 L 279.352,54.5351 L 279.362,54.6691 L 279.387,54.8181 L 279.422,54.9522 L 279.481,55.1012 L 279.556,55.2303 L 279.64,55.3743 L 279.749,55.5084 L 279.868,55.6325 L 279.993,55.7616 L 280.142,55.8858 L 280.305,56.0199 L 280.484,56.1291 L 280.673,56.2433 L 280.877,56.3526 L 281.09,56.4618 L 281.314,56.5611 L 281.557,56.6555 L 281.8,56.7449 L 282.058,56.8293 L 282.327,56.9038 L 282.6,56.9733 L 282.883,57.0528 L 283.181,57.1074 L 283.474,57.1521 L 283.772,57.2067 L 284.084,57.2415 L 284.392,57.2762 L 284.71,57.2961 L 285.028,57.316 L 285.346,57.3259 L 285.664,57.3309 L 285.981,57.3259 L 286.299,57.316 L 286.617,57.2961 L 286.935,57.2762 L 287.243,57.2415 L 287.556,57.2067 L 287.854,57.1521 L 288.147,57.1074 L 288.444,57.0528 L 288.728,56.9733 L 289.001,56.9038 L 289.269,56.8293 L 289.527,56.7449 L 289.77,56.6555 L 290.014,56.5611 L 290.237,56.4618 L 290.446,56.3526 L 290.654,56.2433 L 290.843,56.1291 L 291.022,56.0199 L 291.186,55.8858 L 291.33,55.7616 L 291.454,55.6325 L 291.578,55.5084 L 291.687,55.3743 L 291.772,55.2303 L 291.841,55.1012 L 291.906,54.9522 L 291.935,54.8181 L 291.965,54.6691 L 291.975,54.5351 L 285.664,54.5351z"/>
    <path style="fill: none; fill-opacity:0; stroke-width: 0.02; stroke: #494936" d="M 279.352 54.5351 L 279.362,54.6691 L 279.387,54.8181 L 279.422,54.9522 L 279.481,55.1012 L 279.556,55.2303 L 279.64,55.3743 L 279.749,55.5084 L 279.868,55.6325 L 279.993,55.7616 L 280.142,55.8858 L 280.305,56.0199 L 280.484,56.1291 L 280.673,56.2433 L 280.877,56.3526 L 281.095,56.4618 L 281.318,56.5611 L 281.557,56.6555 L 281.8,56.7449 L 282.063,56.8293 L 282.332,56.9038 L 282.605,56.9733 L 282.883,57.0528 L 283.181,57.1074 L 283.474,57.1521 L 283.777,57.2067 L 284.089,57.2415 L 284.392,57.2762 L 284.71,57.2961 L 285.028,57.316 L 285.346,57.3259 L 285.669,57.3309 L 285.986,57.3259 L 286.304,57.316 L 286.622,57.2961 L 286.94,57.2762 L 287.243,57.2415 L 287.556,57.2067 L 287.859,57.1521 L 288.156,57.1074 L 288.449,57.0528 L 288.728,56.9733 L 289.001,56.9038 L 289.269,56.8293 L 289.532,56.7449 L 289.78,56.6555 L 290.014,56.5611 L 290.237,56.4618 L 290.456,56.3526 L 290.659,56.2433 L 290.848,56.1291 L 291.027,56.0199 L 291.191,55.8858 L 291.34,55.7616 L 291.464,55.6325 L 291.588,55.5084 L 291.687,55.3743 L 291.777,55.2303 L 291.856,55.1012 L 291.906,54.9522 L 291.945,54.8181 L 291.975,54.6691 L 291.98,54.5351"/>
    <path style="fill: none; fill-opacity:0; stroke-width: 0.02; stroke: #7a7a5a" d="M 280.469 54.54 L 290.689,54.54"/>
    <path style="fill: #93936c" d="M 291.995 85.1993 L 291.995,54.7238 L 294.225,54.7238 L 294.225,85.1993 L 291.995,85.1993z"/>
    <path style="fill: #93936c" d="M 293.852 63.6971 L 293.852,56.5959 L 302.21,56.5959 L 302.21,63.6971 L 293.852,63.6971z"/>
    <path style="fill: none; fill-opacity:0; stroke-width: 0.02; stroke: #494936" d="M 293.852 63.6971 L 293.852,56.5959 L 302.21,56.5959 L 302.21,63.6971 L 293.852,63.6971"/>
    <path style="fill: #7a7a5a" d="M 294.041 63.6971 L 294.041,56.7846 L 294.225,56.7846 L 294.225,63.6971 L 294.041,63.6971z"/>
    <path style="fill: #d4000a" d="M 279.541 55.1012 L 280.092,55.6623 L 280.092,86.3215 L 279.541,85.7654 L 279.541,55.1012z"/>
    <path style="fill: none; fill-opacity:0; stroke-width: 0.02; stroke: #494936" d="M 279.352 54.5351 L 279.362,54.6691 L 279.387,54.8181 L 279.422,54.9522 L 279.481,55.1012 L 279.556,55.2303 L 279.64,55.3743 L 279.749,55.5084 L 279.868,55.6325 L 279.993,55.7616 L 280.142,55.8858 L 280.305,56.0199 L 280.484,56.1291 L 280.673,56.2433 L 280.877,56.3526 L 281.095,56.4618 L 281.318,56.5611 L 281.557,56.6555 L 281.8,56.7449 L 282.063,56.8293 L 282.332,56.9038 L 282.605,56.9733 L 282.883,57.0528 L 283.181,57.1074 L 283.474,57.1521 L 283.777,57.2067 L 284.089,57.2415 L 284.392,57.2762 L 284.71,57.2961 L 285.028,57.316 L 285.346,57.3259 L 285.669,57.3309 L 285.986,57.3259 L 286.304,57.316 L 286.622,57.2961 L 286.94,57.2762 L 287.243,57.2415 L 287.556,57.2067 L 287.859,57.1521 L 288.156,57.1074 L 288.449,57.0528 L 288.728,56.9733 L 289.001,56.9038 L 289.269,56.8293 L 289.532,56.7449 L 289.78,56.6555 L 290.014,56.5611 L 290.237,56.4618 L 290.456,56.3526 L 290.659,56.2433 L 290.848,56.1291 L 291.027,56.0199 L 291.191,55.8858 L 291.34,55.7616 L 291.464,55.6325 L 291.588,55.5084 L 291.687,55.3743 L 291.777,55.2303 L 291.856,55.1012 L 291.906,54.9522 L 291.945,54.8181 L 291.975,54.6691 L 291.98,54.5351"/>
    <path style="fill: none; fill-opacity:0; stroke-width: 0.02; stroke: #494936" d="M 279.352 85.2737 L 279.362,85.4128 L 279.382,85.5469 L 279.422,85.6859 L 279.471,85.815 L 279.541,85.9491 L 279.63,86.0832 L 279.724,86.2123 L 279.849,86.3364 L 279.968,86.4556 L 280.117,86.5847 L 280.271,86.6989 L 280.444,86.8132 L 280.628,86.9224 L 280.822,87.0267 L 281.04,87.131 L 281.259,87.2303 L 281.482,87.3197 L 281.731,87.414 L 281.984,87.4885 L 282.247,87.568 L 282.52,87.6325 L 282.788,87.702 L 283.081,87.7567 L 283.374,87.8163 L 283.672,87.856 L 283.975,87.8957 L 284.278,87.9354 L 284.591,87.9553 L 284.909,87.9752 L 285.227,87.9901 L 285.544,88 L 285.852,88 L 286.17,87.9901 L 286.488,87.9752 L 286.801,87.9553 L 287.109,87.9255 L 287.412,87.8908 L 287.719,87.851 L 288.022,87.8014 L 288.31,87.7517 L 288.584,87.6872 L 288.867,87.6226 L 289.135,87.5531 L 289.398,87.4736 L 289.651,87.3842 L 289.89,87.3048 L 290.118,87.2154 L 290.336,87.1161 L 290.55,87.0068 L 290.739,86.9025 L 290.922,86.7883 L 291.091,86.6791 L 291.255,86.5549 L 291.394,86.4358 L 291.513,86.3116 L 291.628,86.1825 L 291.717,86.0534 L 291.806,85.9292 L 291.876,85.7952 L 291.921,85.6611 L 291.96,85.522 L 291.975,85.3929 L 291.98,85.2489"/>
    <path style="fill: #a5a585" d="M 305.006 85.3929 L 305.006,63.6971 L 312.44,63.6971 L 312.44,85.3929 L 305.006,85.3929z"/>
    <path style="fill: none; fill-opacity:0; stroke-width: 0.02; stroke: #494936" d="M 305.006 85.3929 L 305.006,63.6971 L 312.44,63.6971 L 312.44,85.3929 L 305.006,85.3929"/>
    <path style="fill: #a5a585" d="M 312.44 85.3929 L 312.44,63.6971 L 319.868,63.6971 L 319.868,85.3929 L 312.44,85.3929z"/>
    <path style="fill: none; fill-opacity:0; stroke-width: 0.02; stroke: #494936" d="M 312.44 85.3929 L 312.44,63.6971 L 319.868,63.6971 L 319.868,85.3929 L 312.44,85.3929"/>
    <path style="fill: #a5a585" d="M 319.868 85.3929 L 319.868,63.6971 L 327.307,63.6971 L 327.307,85.3929 L 319.868,85.3929z"/>
    <path style="fill: none; fill-opacity:0; stroke-width: 0.02; stroke: #494936" d="M 319.868 85.3929 L 319.868,63.6971 L 327.307,63.6971 L 327.307,85.3929 L 319.868,85.3929"/>
    <path style="fill: #c9c9b6" d="M 308.353 60.3352 L 305.006,63.6971 L 312.44,63.6971 L 315.787,60.3352 L 308.353,60.3352z"/>
    <path style="fill: none; fill-opacity:0; stroke-width: 0.02; stroke: #494936" d="M 308.353 60.3352 L 305.006,63.6971 L 312.44,63.6971 L 315.787,60.3352 L 308.353,60.3352"/>
    <path style="fill: #c9c9b6" d="M 315.787 60.3352 L 312.44,63.6971 L 319.868,63.6971 L 323.21,60.3352 L 315.787,60.3352z"/>
    <path style="fill: none; fill-opacity:0; stroke-width: 0.02; stroke: #494936" d="M 315.787 60.3352 L 312.44,63.6971 L 319.868,63.6971 L 323.21,60.3352 L 315.787,60.3352"/>
    <path style="fill: #c9c9b6" d="M 323.21 60.3352 L 319.868,63.6971 L 327.307,63.6971 L 330.649,60.3352 L 323.21,60.3352z"/>
    <path style="fill: none; fill-opacity:0; stroke-width: 0.02; stroke: #494936" d="M 323.21 60.3352 L 319.868,63.6971 L 327.307,63.6971 L 330.649,60.3352 L 323.21,60.3352"/>
    <path style="fill: #7a7a5a" d="M 330.649 82.2098 L 327.307,85.3929 L 327.307,63.6971 L 330.649,60.3352 L 330.649,82.2098z"/>
    <path style="fill: none; fill-opacity:0; stroke-width: 0.02; stroke: #494936" d="M 330.649 82.2098 L 327.307,85.3929 L 327.307,63.6971 L 330.649,60.3352 L 330.649,82.2098"/>
    <path style="fill: #93936c" d="M 320.986 68.5587 L 320.986,64.6356 L 326.374,64.6356 L 326.374,68.5587 L 320.986,68.5587z"/>
    <path style="fill: none; fill-opacity:0; stroke-width: 0.02; stroke: #494936" d="M 320.986 68.5587 L 320.986,64.6356 L 326.374,64.6356 L 326.374,68.5587 L 320.986,68.5587"/>
    <path style="fill: #93936c" d="M 320.986 73.4202 L 320.986,69.6859 L 326.374,69.6859 L 326.374,73.4202 L 320.986,73.4202z"/>
    <path style="fill: none; fill-opacity:0; stroke-width: 0.02; stroke: #494936" d="M 320.986 73.4202 L 320.986,69.6859 L 326.374,69.6859 L 326.374,73.4202 L 320.986,73.4202"/>
    <path style="fill: #93936c" d="M 320.986 84.077 L 320.986,80.3377 L 326.374,80.3377 L 326.374,84.077 L 320.986,84.077z"/>
    <path style="fill: none; fill-opacity:0; stroke-width: 0.02; stroke: #494936" d="M 320.986 84.077 L 320.986,80.3377 L 326.374,80.3377 L 326.374,84.077 L 320.986,84.077"/>
  </g>
  <text font-size="12.8" style="fill: #000000;text-anchor:middle;font-family:sans-serif;font-style:normal;font-weight:normal" x="298.306" y="44.95">
    <tspan x="298.306" y="44.95">Alice's ASMail Server</tspan>
  </text>
  <g>
    <path style="fill: #b7b79d" d="M 283.846 312.643 L 283.846,281.79 L 296.3,281.79 L 296.3,312.643 L 283.846,312.643z"/>
    <path style="fill: none; fill-opacity:0; stroke-width: 0.02; stroke: #494936" d="M 283.846 312.643 L 283.846,281.79 L 296.3,281.79 L 296.3,312.643 L 283.846,312.643"/>
    <path style="fill: #a5a585" d="M 296.3 312.643 L 296.3,281.79 L 308.76,281.79 L 308.76,312.643 L 296.3,312.643z"/>
    <path style="fill: none; fill-opacity:0; stroke-width: 0.02; stroke: #494936" d="M 296.3 312.643 L 296.3,281.79 L 308.76,281.79 L 308.76,312.643 L 296.3,312.643"/>
    <path style="fill: #7a7a5a" d="M 315.26 306.098 L 315.26,275.25 L 308.76,281.79 L 308.76,312.643 L 315.26,306.098z"/>
    <path style="fill: none; fill-opacity:0; stroke-width: 0.02; stroke: #494936" d="M 315.26 306.098 L 315.26,275.25 L 308.76,281.79 L 308.76,312.643 L 315.26,306.098"/>
    <path style="fill: #c9c9b6" d="M 290.346 275.25 L 283.846,281.79 L 308.76,281.79 L 315.26,275.25 L 290.346,275.25z"/>
    <path style="fill: none; fill-opacity:0; stroke-width: 0.02; stroke: #494936" d="M 290.346 275.25 L 283.846,281.79 L 308.76,281.79 L 315.26,275.25 L 290.346,275.25"/>
    <path style="fill: none; fill-opacity:0; stroke-width: 0.02; stroke: #7a7a5a" d="M 302.061 275.995 L 297.045,281.045"/>
    <path style="fill: #b7b79d" d="M 290.158 312.444 L 283.846,312.444 L 283.856,312.583 L 283.881,312.727 L 283.916,312.866 L 283.975,313.01 L 284.05,313.144 L 284.134,313.284 L 284.243,313.418 L 284.362,313.547 L 284.487,313.671 L 284.636,313.8 L 284.799,313.929 L 284.978,314.038 L 285.167,314.153 L 285.371,314.262 L 285.584,314.371 L 285.808,314.47 L 286.051,314.57 L 286.294,314.649 L 286.552,314.739 L 286.821,314.818 L 287.094,314.883 L 287.377,314.957 L 287.675,315.017 L 287.968,315.066 L 288.266,315.116 L 288.578,315.146 L 288.886,315.185 L 289.204,315.205 L 289.522,315.225 L 289.84,315.235 L 290.158,315.24 L 290.475,315.235 L 290.793,315.225 L 291.111,315.205 L 291.429,315.185 L 291.737,315.146 L 292.05,315.116 L 292.348,315.066 L 292.641,315.017 L 292.938,314.957 L 293.222,314.883 L 293.495,314.818 L 293.763,314.739 L 294.021,314.649 L 294.264,314.57 L 294.508,314.47 L 294.731,314.371 L 294.94,314.262 L 295.148,314.153 L 295.337,314.038 L 295.516,313.929 L 295.68,313.8 L 295.824,313.671 L 295.948,313.547 L 296.072,313.418 L 296.181,313.284 L 296.266,313.144 L 296.335,313.01 L 296.4,312.866 L 296.429,312.727 L 296.459,312.583 L 296.469,312.444 L 290.158,312.444z"/>
    <path style="fill: none; fill-opacity:0; stroke-width: 0.02; stroke: #494936" d="M 283.846 312.444 L 283.856,312.583 L 283.881,312.727 L 283.916,312.866 L 283.975,313.01 L 284.05,313.144 L 284.134,313.284 L 284.243,313.418 L 284.362,313.547 L 284.487,313.671 L 284.636,313.8 L 284.799,313.929 L 284.978,314.038 L 285.167,314.153 L 285.371,314.262 L 285.589,314.371 L 285.812,314.47 L 286.051,314.57 L 286.294,314.649 L 286.557,314.739 L 286.826,314.818 L 287.099,314.883 L 287.377,314.957 L 287.675,315.017 L 287.968,315.066 L 288.271,315.116 L 288.583,315.146 L 288.886,315.185 L 289.204,315.205 L 289.522,315.225 L 289.84,315.235 L 290.163,315.24 L 290.48,315.235 L 290.798,315.225 L 291.116,315.205 L 291.434,315.185 L 291.737,315.146 L 292.05,315.116 L 292.353,315.066 L 292.65,315.017 L 292.943,314.957 L 293.222,314.883 L 293.495,314.818 L 293.763,314.739 L 294.026,314.649 L 294.274,314.57 L 294.508,314.47 L 294.731,314.371 L 294.95,314.262 L 295.153,314.153 L 295.342,314.038 L 295.521,313.929 L 295.685,313.8 L 295.834,313.671 L 295.958,313.547 L 296.082,313.418 L 296.181,313.284 L 296.271,313.144 L 296.35,313.01 L 296.4,312.866 L 296.439,312.727 L 296.469,312.583 L 296.474,312.444"/>
    <path style="fill: #93936c" d="M 292.586 284.218 L 292.586,285.723 L 292.586,287.401 L 292.586,289.457 L 292.586,291.513 L 292.586,296.186 L 292.586,301.043 L 292.586,303.292 L 292.586,305.532 L 292.586,307.404 L 292.586,309.087 L 292.586,310.587 L 292.586,311.699 L 292.586,312.266 L 292.586,312.643 L 296.3,312.643 L 296.3,281.974 L 296.117,281.974 L 296.3,282.167 L 296.3,282.351 L 295.749,282.912 L 294.811,283.473 L 293.698,283.846 L 292.586,284.218z"/>
    <path style="fill: #93936c" d="M 292.586 314.883 L 293.887,314.505 L 294.999,313.949 L 295.555,313.755 L 295.933,313.383 L 296.117,312.827 L 296.3,312.449 L 295.933,312.449 L 295.555,312.449 L 294.999,312.449 L 293.887,312.449 L 292.586,312.449 L 292.586,313.199 L 292.586,313.949 L 292.586,314.321 L 292.586,314.699 L 292.586,314.883z"/>
    <path style="fill: #c9c9b6" d="M 284.402 281.418 L 283.846,281.974 L 296.3,281.974 L 296.3,281.418 L 284.402,281.418z"/>
    <path style="fill: #c9c9b6" d="M 290.158 281.785 L 283.846,281.785 L 283.856,281.919 L 283.881,282.068 L 283.916,282.202 L 283.975,282.351 L 284.05,282.48 L 284.134,282.624 L 284.243,282.758 L 284.362,282.883 L 284.487,283.012 L 284.636,283.136 L 284.799,283.27 L 284.978,283.379 L 285.167,283.493 L 285.371,283.603 L 285.584,283.712 L 285.808,283.811 L 286.051,283.905 L 286.294,283.995 L 286.552,284.079 L 286.821,284.154 L 287.094,284.223 L 287.377,284.303 L 287.675,284.357 L 287.968,284.402 L 288.266,284.457 L 288.578,284.491 L 288.886,284.526 L 289.204,284.546 L 289.522,284.566 L 289.84,284.576 L 290.158,284.581 L 290.475,284.576 L 290.793,284.566 L 291.111,284.546 L 291.429,284.526 L 291.737,284.491 L 292.05,284.457 L 292.348,284.402 L 292.641,284.357 L 292.938,284.303 L 293.222,284.223 L 293.495,284.154 L 293.763,284.079 L 294.021,283.995 L 294.264,283.905 L 294.508,283.811 L 294.731,283.712 L 294.94,283.603 L 295.148,283.493 L 295.337,283.379 L 295.516,283.27 L 295.68,283.136 L 295.824,283.012 L 295.948,282.883 L 296.072,282.758 L 296.181,282.624 L 296.266,282.48 L 296.335,282.351 L 296.4,282.202 L 296.429,282.068 L 296.459,281.919 L 296.469,281.785 L 290.158,281.785z"/>
    <path style="fill: none; fill-opacity:0; stroke-width: 0.02; stroke: #494936" d="M 283.846 281.785 L 283.856,281.919 L 283.881,282.068 L 283.916,282.202 L 283.975,282.351 L 284.05,282.48 L 284.134,282.624 L 284.243,282.758 L 284.362,282.883 L 284.487,283.012 L 284.636,283.136 L 284.799,283.27 L 284.978,283.379 L 285.167,283.493 L 285.371,283.603 L 285.589,283.712 L 285.812,283.811 L 286.051,283.905 L 286.294,283.995 L 286.557,284.079 L 286.826,284.154 L 287.099,284.223 L 287.377,284.303 L 287.675,284.357 L 287.968,284.402 L 288.271,284.457 L 288.583,284.491 L 288.886,284.526 L 289.204,284.546 L 289.522,284.566 L 289.84,284.576 L 290.163,284.581 L 290.48,284.576 L 290.798,284.566 L 291.116,284.546 L 291.434,284.526 L 291.737,284.491 L 292.05,284.457 L 292.353,284.402 L 292.65,284.357 L 292.943,284.303 L 293.222,284.223 L 293.495,284.154 L 293.763,284.079 L 294.026,283.995 L 294.274,283.905 L 294.508,283.811 L 294.731,283.712 L 294.95,283.603 L 295.153,283.493 L 295.342,283.379 L 295.521,283.27 L 295.685,283.136 L 295.834,283.012 L 295.958,282.883 L 296.082,282.758 L 296.181,282.624 L 296.271,282.48 L 296.35,282.351 L 296.4,282.202 L 296.439,282.068 L 296.469,281.919 L 296.474,281.785"/>
    <path style="fill: none; fill-opacity:0; stroke-width: 0.02; stroke: #7a7a5a" d="M 284.963 281.79 L 295.183,281.79"/>
    <path style="fill: #93936c" d="M 296.489 312.449 L 296.489,281.974 L 298.719,281.974 L 298.719,312.449 L 296.489,312.449z"/>
    <path style="fill: #93936c" d="M 298.346 290.947 L 298.346,283.846 L 306.704,283.846 L 306.704,290.947 L 298.346,290.947z"/>
    <path style="fill: none; fill-opacity:0; stroke-width: 0.02; stroke: #494936" d="M 298.346 290.947 L 298.346,283.846 L 306.704,283.846 L 306.704,290.947 L 298.346,290.947"/>
    <path style="fill: #7a7a5a" d="M 298.535 290.947 L 298.535,284.035 L 298.719,284.035 L 298.719,290.947 L 298.535,290.947z"/>
    <path style="fill: #d4000a" d="M 284.035 282.351 L 284.586,282.912 L 284.586,313.572 L 284.035,313.015 L 284.035,282.351z"/>
    <path style="fill: none; fill-opacity:0; stroke-width: 0.02; stroke: #494936" d="M 283.846 281.785 L 283.856,281.919 L 283.881,282.068 L 283.916,282.202 L 283.975,282.351 L 284.05,282.48 L 284.134,282.624 L 284.243,282.758 L 284.362,282.883 L 284.487,283.012 L 284.636,283.136 L 284.799,283.27 L 284.978,283.379 L 285.167,283.493 L 285.371,283.603 L 285.589,283.712 L 285.812,283.811 L 286.051,283.905 L 286.294,283.995 L 286.557,284.079 L 286.826,284.154 L 287.099,284.223 L 287.377,284.303 L 287.675,284.357 L 287.968,284.402 L 288.271,284.457 L 288.583,284.491 L 288.886,284.526 L 289.204,284.546 L 289.522,284.566 L 289.84,284.576 L 290.163,284.581 L 290.48,284.576 L 290.798,284.566 L 291.116,284.546 L 291.434,284.526 L 291.737,284.491 L 292.05,284.457 L 292.353,284.402 L 292.65,284.357 L 292.943,284.303 L 293.222,284.223 L 293.495,284.154 L 293.763,284.079 L 294.026,283.995 L 294.274,283.905 L 294.508,283.811 L 294.731,283.712 L 294.95,283.603 L 295.153,283.493 L 295.342,283.379 L 295.521,283.27 L 295.685,283.136 L 295.834,283.012 L 295.958,282.883 L 296.082,282.758 L 296.181,282.624 L 296.271,282.48 L 296.35,282.351 L 296.4,282.202 L 296.439,282.068 L 296.469,281.919 L 296.474,281.785"/>
    <path style="fill: none; fill-opacity:0; stroke-width: 0.02; stroke: #494936" d="M 283.846 312.524 L 283.856,312.663 L 283.876,312.797 L 283.916,312.936 L 283.965,313.065 L 284.035,313.199 L 284.124,313.333 L 284.218,313.462 L 284.343,313.586 L 284.462,313.706 L 284.611,313.835 L 284.765,313.949 L 284.938,314.063 L 285.122,314.172 L 285.316,314.277 L 285.534,314.381 L 285.753,314.48 L 285.976,314.57 L 286.225,314.664 L 286.478,314.739 L 286.741,314.818 L 287.014,314.883 L 287.282,314.952 L 287.575,315.007 L 287.868,315.066 L 288.166,315.106 L 288.469,315.146 L 288.772,315.185 L 289.085,315.205 L 289.403,315.225 L 289.721,315.24 L 290.038,315.25 L 290.346,315.25 L 290.664,315.24 L 290.982,315.225 L 291.295,315.205 L 291.603,315.176 L 291.906,315.141 L 292.213,315.101 L 292.516,315.051 L 292.804,315.002 L 293.078,314.937 L 293.361,314.873 L 293.629,314.803 L 293.892,314.724 L 294.145,314.634 L 294.384,314.555 L 294.612,314.465 L 294.83,314.366 L 295.044,314.257 L 295.233,314.153 L 295.416,314.038 L 295.585,313.929 L 295.749,313.805 L 295.888,313.686 L 296.007,313.562 L 296.122,313.432 L 296.211,313.303 L 296.3,313.179 L 296.37,313.045 L 296.415,312.911 L 296.454,312.772 L 296.469,312.643 L 296.474,312.499"/>
    <path style="fill: #a5a585" d="M 309.5 312.643 L 309.5,290.947 L 316.934,290.947 L 316.934,312.643 L 309.5,312.643z"/>
    <path style="fill: none; fill-opacity:0; stroke-width: 0.02; stroke: #494936" d="M 309.5 312.643 L 309.5,290.947 L 316.934,290.947 L 316.934,312.643 L 309.5,312.643"/>
    <path style="fill: #a5a585" d="M 316.934 312.643 L 316.934,290.947 L 324.362,290.947 L 324.362,312.643 L 316.934,312.643z"/>
    <path style="fill: none; fill-opacity:0; stroke-width: 0.02; stroke: #494936" d="M 316.934 312.643 L 316.934,290.947 L 324.362,290.947 L 324.362,312.643 L 316.934,312.643"/>
    <path style="fill: #a5a585" d="M 324.362 312.643 L 324.362,290.947 L 331.801,290.947 L 331.801,312.643 L 324.362,312.643z"/>
    <path style="fill: none; fill-opacity:0; stroke-width: 0.02; stroke: #494936" d="M 324.362 312.643 L 324.362,290.947 L 331.801,290.947 L 331.801,312.643 L 324.362,312.643"/>
    <path style="fill: #c9c9b6" d="M 312.847 287.585 L 309.5,290.947 L 316.934,290.947 L 320.281,287.585 L 312.847,287.585z"/>
    <path style="fill: none; fill-opacity:0; stroke-width: 0.02; stroke: #494936" d="M 312.847 287.585 L 309.5,290.947 L 316.934,290.947 L 320.281,287.585 L 312.847,287.585"/>
    <path style="fill: #c9c9b6" d="M 320.281 287.585 L 316.934,290.947 L 324.362,290.947 L 327.704,287.585 L 320.281,287.585z"/>
    <path style="fill: none; fill-opacity:0; stroke-width: 0.02; stroke: #494936" d="M 320.281 287.585 L 316.934,290.947 L 324.362,290.947 L 327.704,287.585 L 320.281,287.585"/>
    <path style="fill: #c9c9b6" d="M 327.704 287.585 L 324.362,290.947 L 331.801,290.947 L 335.143,287.585 L 327.704,287.585z"/>
    <path style="fill: none; fill-opacity:0; stroke-width: 0.02; stroke: #494936" d="M 327.704 287.585 L 324.362,290.947 L 331.801,290.947 L 335.143,287.585 L 327.704,287.585"/>
    <path style="fill: #7a7a5a" d="M 335.143 309.46 L 331.801,312.643 L 331.801,290.947 L 335.143,287.585 L 335.143,309.46z"/>
    <path style="fill: none; fill-opacity:0; stroke-width: 0.02; stroke: #494936" d="M 335.143 309.46 L 331.801,312.643 L 331.801,290.947 L 335.143,287.585 L 335.143,309.46"/>
    <path style="fill: #93936c" d="M 325.48 295.809 L 325.48,291.886 L 330.868,291.886 L 330.868,295.809 L 325.48,295.809z"/>
    <path style="fill: none; fill-opacity:0; stroke-width: 0.02; stroke: #494936" d="M 325.48 295.809 L 325.48,291.886 L 330.868,291.886 L 330.868,295.809 L 325.48,295.809"/>
    <path style="fill: #93936c" d="M 325.48 300.67 L 325.48,296.936 L 330.868,296.936 L 330.868,300.67 L 325.48,300.67z"/>
    <path style="fill: none; fill-opacity:0; stroke-width: 0.02; stroke: #494936" d="M 325.48 300.67 L 325.48,296.936 L 330.868,296.936 L 330.868,300.67 L 325.48,300.67"/>
    <path style="fill: #93936c" d="M 325.48 311.327 L 325.48,307.588 L 330.868,307.588 L 330.868,311.327 L 325.48,311.327z"/>
    <path style="fill: none; fill-opacity:0; stroke-width: 0.02; stroke: #494936" d="M 325.48 311.327 L 325.48,307.588 L 330.868,307.588 L 330.868,311.327 L 325.48,311.327"/>
  </g>
  <text font-size="12.8" style="fill: #000000;text-anchor:middle;font-family:sans-serif;font-style:normal;font-weight:normal" x="302.8" y="272.2">
    <tspan x="302.8" y="272.2">Bob's ASMail Server</tspan>
  </text>
  <g>
    <path style="fill: #c9c9b6" d="M 494.726 159.422 L 528.721,159.422 L 514.427,173.764 L 480.432,173.764 L 494.726,159.422z"/>
    <path style="fill: none; fill-opacity:0; stroke-width: 0.02; stroke: #494936" d="M 494.726 159.422 L 528.721,159.422 L 514.427,173.764 L 480.432,173.764 L 494.726,159.422"/>
    <path style="fill: none; fill-opacity:0; stroke-width: 0.02; stroke: #dbdbce" d="M 496.031 171.342 L 496.031,171.418 L 496.045,171.48 L 496.065,171.564 L 496.093,171.647 L 496.135,171.71 L 496.183,171.786 L 496.246,171.855 L 496.308,171.918 L 496.371,171.994 L 496.454,172.071 L 496.538,172.133 L 496.628,172.189 L 496.732,172.244 L 496.829,172.307 L 496.954,172.355 L 497.065,172.418 L 497.19,172.466 L 497.329,172.515 L 497.468,172.556 L 497.6,172.598 L 497.745,172.64 L 497.891,172.681 L 498.044,172.702 L 498.211,172.73 L 498.37,172.744 L 498.537,172.772 L 498.69,172.793 L 498.863,172.813 L 499.037,172.82 L 499.203,172.827 L 499.37,172.827"/>
    <path style="fill: none; fill-opacity:0; stroke-width: 0.02; stroke: #dbdbce" d="M 499.002 172.827 L 499.169,172.827 L 499.328,172.82 L 499.488,172.806 L 499.654,172.786 L 499.821,172.772 L 499.974,172.744 L 500.127,172.73 L 500.286,172.695 L 500.432,172.661 L 500.585,172.619 L 500.717,172.577 L 500.855,172.536 L 500.987,172.487 L 501.112,172.438 L 501.223,172.39 L 501.341,172.334 L 501.452,172.272 L 501.55,172.216 L 501.647,172.147 L 501.73,172.077 L 501.807,172.008 L 501.869,171.946 L 501.938,171.869 L 501.994,171.793 L 502.036,171.73 L 502.084,171.654 L 502.105,171.564 L 502.126,171.487 L 502.147,171.418 L 502.154,171.342"/>
    <path style="fill: none; fill-opacity:0; stroke-width: 0.02; stroke: #dbdbce" d="M 499.738 168.558 L 499.564,168.558 L 499.398,168.565 L 499.224,168.565 L 499.071,168.579 L 498.905,168.6 L 498.738,168.613 L 498.578,168.627 L 498.412,168.662 L 498.266,168.69 L 498.12,168.711 L 497.975,168.745 L 497.829,168.787 L 497.697,168.822 L 497.572,168.863 L 497.447,168.919 L 497.308,168.961 L 497.211,169.009 L 497.1,169.051 L 496.996,169.106 L 496.912,169.169 L 496.822,169.224 L 496.746,169.273 L 496.669,169.335 L 496.614,169.398 L 496.558,169.467 L 496.503,169.53 L 496.475,169.585 L 496.44,169.655 L 496.42,169.71 L 496.413,169.787 L 496.406,169.842"/>
    <path style="fill: none; fill-opacity:0; stroke-width: 0.02; stroke: #dbdbce" d="M 502.515 169.842 L 502.515,169.78 L 502.508,169.71 L 502.48,169.648 L 502.452,169.571 L 502.417,169.516 L 502.362,169.44 L 502.306,169.384 L 502.251,169.315 L 502.168,169.266 L 502.105,169.197 L 502.022,169.141 L 501.911,169.092 L 501.82,169.023 L 501.716,168.988 L 501.605,168.933 L 501.48,168.877 L 501.348,168.836 L 501.216,168.794 L 501.085,168.759 L 500.946,168.731 L 500.8,168.697 L 500.647,168.662 L 500.501,168.641 L 500.349,168.613 L 500.196,168.6 L 500.036,168.579 L 499.87,168.565 L 499.696,168.565 L 499.53,168.558 L 499.37,168.558"/>
    <path style="fill: #a5a585" d="M 480.432 175.25 L 514.427,175.25 L 514.427,173.764 L 480.432,173.764 L 480.432,175.25z"/>
    <path style="fill: none; fill-opacity:0; stroke-width: 0.02; stroke: #494936" d="M 480.432 175.25 L 514.427,175.25 L 514.427,173.764 L 480.432,173.764 L 480.432,175.25"/>
    <path style="fill: #a5a585" d="M 494.726 159.422 L 528.721,159.422 L 528.721,136.166 L 494.726,136.166 L 494.726,159.422z"/>
    <path style="fill: none; fill-opacity:0; stroke-width: 0.02; stroke: #494936" d="M 494.726 159.422 L 528.721,159.422 L 528.721,136.166 L 494.726,136.166 L 494.726,159.422"/>
    <path style="fill: #7a7a5a" d="M 529.651 158.506 L 529.651,135.25 L 528.721,136.166 L 528.721,159.422 L 529.651,158.506z"/>
    <path style="fill: none; fill-opacity:0; stroke-width: 0.02; stroke: #494936" d="M 529.651 158.506 L 529.651,135.25 L 528.721,136.166 L 528.721,159.422 L 529.651,158.506"/>
    <path style="fill: #ffffff" d="M 496.406 157.944 L 527.055,157.944 L 527.055,138.034 L 496.406,138.034 L 496.406,157.944z"/>
    <path style="fill: none; fill-opacity:0; stroke-width: 0.02; stroke: #494936" d="M 496.406 157.944 L 527.055,157.944 L 527.055,138.034 L 496.406,138.034 L 496.406,157.944"/>
    <path style="fill: #93936c" d="M 496.406 160.547 L 525,160.547 L 517.572,167.996 L 488.978,167.996 L 496.406,160.547z"/>
    <path style="fill: none; fill-opacity:0; stroke-width: 0.02; stroke: #494936" d="M 496.406 160.547 L 525,160.547 L 517.572,167.996 L 488.978,167.996 L 496.406,160.547"/>
    <path style="fill: #7a7a5a" d="M 500.855 170.87 L 500.855,170.828 L 500.849,170.786 L 500.842,170.745 L 500.821,170.696 L 500.814,170.654 L 500.786,170.62 L 500.772,170.578 L 500.737,170.55 L 500.703,170.509 L 500.682,170.467 L 500.647,170.432 L 500.606,170.398 L 500.564,170.356 L 500.515,170.321 L 500.474,170.3 L 500.425,170.266 L 500.37,170.238 L 500.307,170.217 L 500.258,170.182 L 500.196,170.168 L 500.133,170.141 L 500.078,170.127 L 500.009,170.106 L 499.946,170.092 L 499.87,170.078 L 499.807,170.057 L 499.738,170.05 L 499.675,170.05 L 499.606,170.043 L 499.523,170.043 L 499.467,170.043 L 499.467,170.043 L 499.391,170.043 L 499.314,170.043 L 499.252,170.05 L 499.182,170.05 L 499.12,170.057 L 499.044,170.078 L 498.981,170.092 L 498.912,170.106 L 498.849,170.127 L 498.787,170.141 L 498.731,170.168 L 498.662,170.182 L 498.613,170.217 L 498.558,170.238 L 498.502,170.266 L 498.454,170.3 L 498.412,170.321 L 498.363,170.356 L 498.322,170.398 L 498.287,170.432 L 498.238,170.467 L 498.217,170.509 L 498.176,170.55 L 498.155,170.578 L 498.134,170.62 L 498.113,170.654 L 498.099,170.696 L 498.093,170.745 L 498.079,170.786 L 498.065,170.828 L 498.065,170.87 L 498.065,170.87 L 498.065,170.918 L 498.079,170.96 L 498.093,171.001 L 498.099,171.043 L 498.113,171.085 L 498.134,171.119 L 498.155,171.168 L 498.176,171.203 L 498.217,171.244 L 498.238,171.272 L 498.287,171.314 L 498.322,171.349 L 498.363,171.39 L 498.412,171.418 L 498.454,171.446 L 498.502,171.48 L 498.558,171.508 L 498.613,171.529 L 498.662,171.564 L 498.731,171.578 L 498.787,171.605 L 498.849,171.619 L 498.912,171.64 L 498.981,171.654 L 499.044,171.668 L 499.12,171.682 L 499.182,171.696 L 499.252,171.696 L 499.314,171.696 L 499.391,171.703 L 499.467,171.703 L 499.467,171.703 L 499.523,171.703 L 499.606,171.696 L 499.675,171.696 L 499.738,171.696 L 499.807,171.682 L 499.87,171.668 L 499.946,171.654 L 500.009,171.64 L 500.078,171.619 L 500.133,171.605 L 500.196,171.578 L 500.258,171.564 L 500.307,171.529 L 500.37,171.508 L 500.425,171.48 L 500.474,171.446 L 500.515,171.418 L 500.564,171.39 L 500.606,171.349 L 500.647,171.314 L 500.682,171.272 L 500.703,171.244 L 500.737,171.203 L 500.772,171.168 L 500.786,171.119 L 500.814,171.085 L 500.821,171.043 L 500.842,171.001 L 500.849,170.96 L 500.855,170.918 L 500.855,170.87z"/>
    <path style="fill: none; fill-opacity:0; stroke-width: 0.02; stroke: #dbdbce" d="M 500.675 170.786 L 500.675,170.745 L 500.668,170.703 L 500.668,170.668 L 500.647,170.64 L 500.633,170.585 L 500.626,170.564 L 500.592,170.522 L 500.564,170.481 L 500.543,170.453 L 500.515,170.425 L 500.474,170.398 L 500.439,170.349 L 500.397,170.321 L 500.356,170.3 L 500.321,170.266 L 500.265,170.238 L 500.224,170.224 L 500.175,170.189 L 500.127,170.175 L 500.064,170.148 L 500.009,170.134 L 499.946,170.12 L 499.891,170.099 L 499.828,170.085 L 499.766,170.078 L 499.696,170.057 L 499.641,170.05 L 499.564,170.043 L 499.509,170.043 L 499.439,170.043 L 499.377,170.043 L 499.377,170.043 L 499.307,170.043 L 499.245,170.043 L 499.175,170.043 L 499.12,170.05 L 499.051,170.057 L 498.995,170.078 L 498.919,170.085 L 498.863,170.099 L 498.815,170.12 L 498.745,170.134 L 498.69,170.148 L 498.62,170.175 L 498.585,170.189 L 498.523,170.224 L 498.481,170.238 L 498.433,170.266 L 498.391,170.3 L 498.349,170.321 L 498.308,170.349 L 498.273,170.398 L 498.238,170.425 L 498.211,170.453 L 498.176,170.481 L 498.162,170.522 L 498.134,170.564 L 498.12,170.585 L 498.106,170.64 L 498.093,170.668 L 498.086,170.703 L 498.079,170.745 L 498.079,170.786 L 498.079,170.786 L 498.079,170.821 L 498.086,170.863 L 498.093,170.904 L 498.106,170.925 L 498.12,170.967 L 498.134,171.008 L 498.162,171.043 L 498.176,171.078 L 498.211,171.119 L 498.238,171.14 L 498.273,171.175 L 498.308,171.21 L 498.349,171.244 L 498.391,171.265 L 498.433,171.3 L 498.481,171.321 L 498.523,171.349 L 498.585,171.376 L 498.62,171.39 L 498.69,171.418 L 498.745,171.439 L 498.815,171.446 L 498.863,171.467 L 498.919,171.48 L 498.995,171.487 L 499.051,171.508 L 499.12,171.522 L 499.175,171.522 L 499.245,171.522 L 499.307,171.522 L 499.377,171.522 L 499.377,171.522 L 499.439,171.522 L 499.509,171.522 L 499.564,171.522 L 499.641,171.522 L 499.696,171.508 L 499.766,171.487 L 499.828,171.48 L 499.891,171.467 L 499.946,171.446 L 500.009,171.439 L 500.064,171.418 L 500.127,171.39 L 500.175,171.376 L 500.224,171.349 L 500.265,171.321 L 500.321,171.3 L 500.356,171.265 L 500.397,171.244 L 500.439,171.21 L 500.474,171.175 L 500.515,171.14 L 500.543,171.119 L 500.564,171.078 L 500.592,171.043 L 500.626,171.008 L 500.633,170.967 L 500.647,170.925 L 500.668,170.904 L 500.668,170.863 L 500.675,170.821 L 500.675,170.786"/>
    <path style="fill: none; fill-opacity:0; stroke-width: 0.02; stroke: #626248" d="M 496.225 171.522 L 496.225,171.605 L 496.239,171.668 L 496.267,171.744 L 496.288,171.828 L 496.329,171.897 L 496.371,171.959 L 496.433,172.036 L 496.496,172.112 L 496.565,172.175 L 496.635,172.244 L 496.725,172.307 L 496.808,172.376 L 496.919,172.432 L 497.023,172.487 L 497.135,172.536 L 497.253,172.598 L 497.384,172.647 L 497.502,172.695 L 497.655,172.737 L 497.794,172.779 L 497.94,172.827 L 498.086,172.862 L 498.238,172.883 L 498.391,172.911 L 498.558,172.938 L 498.717,172.952 L 498.877,172.98 L 499.044,172.994 L 499.217,173.001 L 499.384,173.001 L 499.55,173.001"/>
    <path style="fill: none; fill-opacity:0; stroke-width: 0.02; stroke: #626248" d="M 499.175 173.001 L 499.349,173.001 L 499.509,173.001 L 499.682,172.987 L 499.835,172.966 L 499.995,172.952 L 500.161,172.938 L 500.307,172.911 L 500.467,172.876 L 500.606,172.841 L 500.758,172.813 L 500.904,172.772 L 501.036,172.73 L 501.168,172.681 L 501.293,172.619 L 501.418,172.57 L 501.522,172.515 L 501.633,172.459 L 501.73,172.39 L 501.82,172.334 L 501.911,172.258 L 501.987,172.202 L 502.063,172.133 L 502.126,172.05 L 502.168,171.973 L 502.23,171.911 L 502.258,171.828 L 502.292,171.751 L 502.32,171.668 L 502.32,171.605 L 502.334,171.522"/>
    <path style="fill: none; fill-opacity:0; stroke-width: 0.02; stroke: #626248" d="M 499.918 168.738 L 499.759,168.738 L 499.592,168.745 L 499.425,168.745 L 499.259,168.759 L 499.085,168.78 L 498.919,168.787 L 498.773,168.815 L 498.606,168.836 L 498.454,168.877 L 498.308,168.891 L 498.162,168.933 L 498.023,168.961 L 497.884,169.009 L 497.759,169.051 L 497.634,169.092 L 497.502,169.134 L 497.398,169.183 L 497.287,169.231 L 497.19,169.294 L 497.1,169.349 L 497.017,169.398 L 496.933,169.467 L 496.85,169.516 L 496.801,169.571 L 496.746,169.648 L 496.697,169.703 L 496.656,169.773 L 496.628,169.828 L 496.607,169.891 L 496.6,169.967 L 496.593,170.037"/>
    <path style="fill: none; fill-opacity:0; stroke-width: 0.02; stroke: #626248" d="M 502.709 170.037 L 502.695,169.96 L 502.688,169.891 L 502.674,169.828 L 502.64,169.759 L 502.598,169.696 L 502.549,169.627 L 502.494,169.571 L 502.431,169.509 L 502.362,169.44 L 502.279,169.384 L 502.195,169.322 L 502.105,169.266 L 501.994,169.217 L 501.897,169.169 L 501.779,169.12 L 501.668,169.065 L 501.543,169.023 L 501.411,168.988 L 501.265,168.947 L 501.126,168.919 L 500.987,168.877 L 500.842,168.849 L 500.689,168.822 L 500.522,168.794 L 500.376,168.78 L 500.217,168.759 L 500.05,168.745 L 499.877,168.745 L 499.724,168.738 L 499.55,168.738"/>
    <path style="fill: #7a7a5a" d="M 528.721 160.727 L 514.427,175.07 L 514.427,173.764 L 528.721,159.422 L 528.721,160.727z"/>
    <path style="fill: none; fill-opacity:0; stroke-width: 0.02; stroke: #494936" d="M 528.721 160.727 L 514.427,175.07 L 514.427,173.764 L 528.721,159.422 L 528.721,160.727"/>
    <path style="fill: #7a7a5a" d="M 523.896 158.325 L 523.896,158.679 L 526.68,158.679 L 526.68,158.325 L 523.896,158.325z"/>
    <path style="fill: none; fill-opacity:0; stroke-width: 0.02; stroke: #494936" d="M 523.896 158.325 L 523.896,158.679 L 526.68,158.679 L 526.68,158.325 L 523.896,158.325"/>
    <path style="fill: none; fill-opacity:0; stroke-width: 0.02; stroke: #000000" d="M 523.132 162.407 L 494.726,162.407"/>
    <path style="fill: none; fill-opacity:0; stroke-width: 0.02; stroke: #000000" d="M 521.286 164.275 L 492.879,164.275"/>
    <path style="fill: none; fill-opacity:0; stroke-width: 0.02; stroke: #000000" d="M 519.432 166.135 L 491.019,166.135"/>
    <path style="fill: #c9c9b6" d="M 495.656 135.25 L 529.651,135.25 L 528.721,136.166 L 494.726,136.166 L 495.656,135.25z"/>
    <path style="fill: none; fill-opacity:0; stroke-width: 0.02; stroke: #494936" d="M 495.656 135.25 L 529.651,135.25 L 528.721,136.166 L 494.726,136.166 L 495.656,135.25"/>
  </g>
  <text font-size="12.8" style="fill: #000000;text-anchor:middle;font-family:sans-serif;font-style:normal;font-weight:normal" x="529.652" y="132.2">
    <tspan x="529.652" y="132.2">Bob</tspan>
  </text>
  <g>
    <path style="fill: none; fill-opacity:0; stroke-width: 2; stroke: #000000" d="M 126.61,158.256 A 116.198,116.198 0 0 0 274.766,301.063"/>
    <polygon style="fill: #000000" points="281.79,298.501 274.561,307.03 274.894,301.45 270.629,297.835 "/>
    <polygon style="fill: none; fill-opacity:0; stroke-width: 2; stroke: #000000" points="281.79,298.501 274.561,307.03 274.894,301.45 270.629,297.835 "/>
  </g>
  <text font-size="12.8" style="fill: #000000;text-anchor:start;font-family:sans-serif;font-style:normal;font-weight:normal" x="126.61" y="170.156">
    <tspan x="126.61" y="170.156"></tspan>
    <tspan x="126.61" y="186.156"></tspan>
    <tspan x="126.61" y="202.156">Message to Bob,</tspan>
    <tspan x="126.61" y="218.156"> anonymous to server,</tspan>
    <tspan x="126.61" y="234.156">  possibly over Tor</tspan>
    <tspan x="126.61" y="250.156"></tspan>
  </text>
  <g>
    <polyline style="fill: none; fill-opacity:0; stroke-width: 2; stroke: #000000" points="335.142,298.52 335.142,298.01 497.426,298.01 497.426,184.986 "/>
    <polygon style="fill: #000000" points="497.426,177.486 502.426,187.486 497.426,184.986 492.426,187.486 "/>
    <polygon style="fill: none; fill-opacity:0; stroke-width: 2; stroke: #000000" points="497.426,177.486 502.426,187.486 497.426,184.986 492.426,187.486 "/>
  </g>
  <text font-size="12.8" style="fill: #000000;text-anchor:end;font-family:sans-serif;font-style:normal;font-weight:normal" x="497.426" y="187.15">
    <tspan x="497.426" y="187.15"></tspan>
    <tspan x="497.426" y="203.15"></tspan>
    <tspan x="497.426" y="219.15">Bob is getting  </tspan>
    <tspan x="497.426" y="235.15">his mail  </tspan>
  </text>
  <g>
    <path style="fill: none; fill-opacity:0; stroke-width: 2; stroke: #000000" d="M 334.195,91.2449 A 108.061,108.061 0 0 0 495.656,135.25"/>
    <polygon style="fill: #000000" points="331.371,84.3258 339.335,92.1723 333.796,91.423 329.872,95.4052 "/>
    <polygon style="fill: none; fill-opacity:0; stroke-width: 2; stroke: #000000" points="331.371,84.3258 339.335,92.1723 333.796,91.423 329.872,95.4052 "/>
  </g>
  <text font-size="12.8" style="fill: #000000;text-anchor:end;font-family:sans-serif;font-style:normal;font-weight:normal" x="495.656" y="100.2">
    <tspan x="495.656" y="100.2">Message to Alice,</tspan>
    <tspan x="495.656" y="116.2">anonymous to server,</tspan>
    <tspan x="495.656" y="132.2">possibly over Tor</tspan>
  </text>
  <g>
    <polyline style="fill: none; fill-opacity:0; stroke-width: 2; stroke: #000000" points="279.352,70.3712 109.608,70.3712 109.608,125.264 "/>
    <polygon style="fill: #000000" points="109.608,132.764 104.608,122.764 109.608,125.264 114.608,122.764 "/>
    <polygon style="fill: none; fill-opacity:0; stroke-width: 2; stroke: #000000" points="109.608,132.764 104.608,122.764 109.608,125.264 114.608,122.764 "/>
  </g>
  <text font-size="12.8" style="fill: #000000;text-anchor:start;font-family:sans-serif;font-style:normal;font-weight:normal" x="109.608" y="99.95">
    <tspan x="109.608" y="99.95">  Alice is getting</tspan>
    <tspan x="109.608" y="115.95">  her mail</tspan>
    <tspan x="109.608" y="131.95"></tspan>
  </text>
</svg>
