<?xml version="1.0" encoding="UTF-8" standalone="no"?>
<!DOCTYPE svg PUBLIC "-//W3C//DTD SVG 1.0//EN" "http://www.w3.org/TR/2001/PR-SVG-20010719/DTD/svg10.dtd">
<svg width="23cm" height="11cm" viewBox="14 17 441 219" xmlns="http://www.w3.org/2000/svg" xmlns:xlink="http://www.w3.org/1999/xlink">
  <g>
    <path style="fill: #c9c9b6" d="M 75.684 56.1722 L 109.679,56.1722 L 95.3855,70.5144 L 61.3904,70.5144 L 75.684,56.1722z"/>
    <path style="fill: none; fill-opacity:0; stroke-width: 0.02; stroke: #494936" d="M 75.684 56.1722 L 109.679,56.1722 L 95.3855,70.5144 L 61.3904,70.5144 L 75.684,56.1722"/>
    <path style="fill: none; fill-opacity:0; stroke-width: 0.02; stroke: #dbdbce" d="M 76.9892 68.0916 L 76.9892,68.168 L 77.003,68.2305 L 77.0239,68.3138 L 77.0516,68.3971 L 77.0933,68.4596 L 77.1419,68.5359 L 77.2044,68.6053 L 77.2668,68.6678 L 77.3293,68.7442 L 77.4126,68.8205 L 77.4959,68.883 L 77.5862,68.9386 L 77.6903,68.9941 L 77.7875,69.0566 L 77.9124,69.1052 L 78.0235,69.1677 L 78.1485,69.2162 L 78.2873,69.2648 L 78.4262,69.3065 L 78.5581,69.3481 L 78.7038,69.3898 L 78.8496,69.4314 L 79.0023,69.4523 L 79.1689,69.48 L 79.3286,69.4939 L 79.4952,69.5217 L 79.6479,69.5425 L 79.8215,69.5633 L 79.9951,69.5703 L 80.1617,69.5772 L 80.3283,69.5772"/>
    <path style="fill: none; fill-opacity:0; stroke-width: 0.02; stroke: #dbdbce" d="M 79.9603 69.5772 L 80.1269,69.5772 L 80.2866,69.5703 L 80.4463,69.5564 L 80.6129,69.5356 L 80.7795,69.5217 L 80.9322,69.4939 L 81.085,69.48 L 81.2446,69.4453 L 81.3904,69.4106 L 81.5431,69.369 L 81.675,69.3273 L 81.8139,69.2857 L 81.9458,69.2371 L 82.0707,69.1885 L 82.1818,69.1399 L 82.2998,69.0843 L 82.4109,69.0219 L 82.5081,68.9663 L 82.6053,68.8969 L 82.6886,68.8275 L 82.7649,68.7581 L 82.8274,68.6956 L 82.8968,68.6192 L 82.9524,68.5429 L 82.994,68.4804 L 83.0426,68.404 L 83.0634,68.3138 L 83.0843,68.2374 L 83.1051,68.168 L 83.112,68.0916"/>
    <path style="fill: none; fill-opacity:0; stroke-width: 0.02; stroke: #dbdbce" d="M 80.6962 65.3079 L 80.5226,65.3079 L 80.356,65.3148 L 80.1825,65.3148 L 80.0298,65.3287 L 79.8632,65.3495 L 79.6965,65.3634 L 79.5369,65.3773 L 79.3703,65.412 L 79.2245,65.4398 L 79.0787,65.4606 L 78.9329,65.4953 L 78.7871,65.537 L 78.6552,65.5717 L 78.5303,65.6133 L 78.4053,65.6689 L 78.2665,65.7105 L 78.1693,65.7591 L 78.0582,65.8008 L 77.9541,65.8563 L 77.8708,65.9188 L 77.7805,65.9743 L 77.7042,66.0229 L 77.6278,66.0854 L 77.5723,66.1479 L 77.5167,66.2173 L 77.4612,66.2798 L 77.4334,66.3353 L 77.3987,66.4047 L 77.3779,66.4603 L 77.371,66.5366 L 77.364,66.5922"/>
    <path style="fill: none; fill-opacity:0; stroke-width: 0.02; stroke: #dbdbce" d="M 83.473 66.5922 L 83.473,66.5297 L 83.4661,66.4603 L 83.4383,66.3978 L 83.4105,66.3214 L 83.3758,66.2659 L 83.3203,66.1895 L 83.2647,66.134 L 83.2092,66.0646 L 83.1259,66.016 L 83.0634,65.9465 L 82.9801,65.891 L 82.8691,65.8424 L 82.7788,65.773 L 82.6747,65.7383 L 82.5636,65.6827 L 82.4386,65.6272 L 82.3067,65.5856 L 82.1748,65.5439 L 82.043,65.5092 L 81.9041,65.4814 L 81.7583,65.4467 L 81.6056,65.412 L 81.4598,65.3912 L 81.3071,65.3634 L 81.1544,65.3495 L 80.9947,65.3287 L 80.8281,65.3148 L 80.6545,65.3148 L 80.4879,65.3079 L 80.3283,65.3079"/>
    <path style="fill: #a5a585" d="M 61.3904 72 L 95.3855,72 L 95.3855,70.5144 L 61.3904,70.5144 L 61.3904,72z"/>
    <path style="fill: none; fill-opacity:0; stroke-width: 0.02; stroke: #494936" d="M 61.3904 72 L 95.3855,72 L 95.3855,70.5144 L 61.3904,70.5144 L 61.3904,72"/>
    <path style="fill: #a5a585" d="M 75.684 56.1722 L 109.679,56.1722 L 109.679,32.9163 L 75.684,32.9163 L 75.684,56.1722z"/>
    <path style="fill: none; fill-opacity:0; stroke-width: 0.02; stroke: #494936" d="M 75.684 56.1722 L 109.679,56.1722 L 109.679,32.9163 L 75.684,32.9163 L 75.684,56.1722"/>
    <path style="fill: #7a7a5a" d="M 110.609 55.2558 L 110.609,32 L 109.679,32.9163 L 109.679,56.1722 L 110.609,55.2558z"/>
    <path style="fill: none; fill-opacity:0; stroke-width: 0.02; stroke: #494936" d="M 110.609 55.2558 L 110.609,32 L 109.679,32.9163 L 109.679,56.1722 L 110.609,55.2558"/>
    <path style="fill: #ffffff" d="M 77.364 54.6935 L 108.013,54.6935 L 108.013,34.7838 L 77.364,34.7838 L 77.364,54.6935z"/>
    <path style="fill: none; fill-opacity:0; stroke-width: 0.02; stroke: #494936" d="M 77.364 54.6935 L 108.013,54.6935 L 108.013,34.7838 L 77.364,34.7838 L 77.364,54.6935"/>
    <path style="fill: #93936c" d="M 77.364 57.2968 L 105.958,57.2968 L 98.5303,64.7456 L 69.936,64.7456 L 77.364,57.2968z"/>
    <path style="fill: none; fill-opacity:0; stroke-width: 0.02; stroke: #494936" d="M 77.364 57.2968 L 105.958,57.2968 L 98.5303,64.7456 L 69.936,64.7456 L 77.364,57.2968"/>
    <path style="fill: #7a7a5a" d="M 81.8139 67.6196 L 81.8139,67.5779 L 81.8069,67.5363 L 81.8,67.4946 L 81.7792,67.446 L 81.7722,67.4044 L 81.7444,67.3697 L 81.7306,67.328 L 81.6958,67.3002 L 81.6611,67.2586 L 81.6403,67.2169 L 81.6056,67.1822 L 81.564,67.1475 L 81.5223,67.1059 L 81.4737,67.0712 L 81.4321,67.0503 L 81.3835,67.0156 L 81.3279,66.9879 L 81.2654,66.967 L 81.2168,66.9323 L 81.1544,66.9184 L 81.0919,66.8907 L 81.0364,66.8768 L 80.9669,66.856 L 80.9045,66.8421 L 80.8281,66.8282 L 80.7656,66.8074 L 80.6962,66.8004 L 80.6337,66.8004 L 80.5643,66.7935 L 80.481,66.7935 L 80.4255,66.7935 L 80.4255,66.7935 L 80.3491,66.7935 L 80.2727,66.7935 L 80.2103,66.8004 L 80.1408,66.8004 L 80.0784,66.8074 L 80.002,66.8282 L 79.9395,66.8421 L 79.8701,66.856 L 79.8076,66.8768 L 79.7451,66.8907 L 79.6896,66.9184 L 79.6202,66.9323 L 79.5716,66.967 L 79.5161,66.9879 L 79.4605,67.0156 L 79.4119,67.0503 L 79.3703,67.0712 L 79.3217,67.1059 L 79.28,67.1475 L 79.2453,67.1822 L 79.1967,67.2169 L 79.1759,67.2586 L 79.1342,67.3002 L 79.1134,67.328 L 79.0926,67.3697 L 79.0718,67.4044 L 79.0579,67.446 L 79.0509,67.4946 L 79.0371,67.5363 L 79.0232,67.5779 L 79.0232,67.6196 L 79.0232,67.6196 L 79.0232,67.6682 L 79.0371,67.7098 L 79.0509,67.7515 L 79.0579,67.7931 L 79.0718,67.8348 L 79.0926,67.8695 L 79.1134,67.9181 L 79.1342,67.9528 L 79.1759,67.9944 L 79.1967,68.0222 L 79.2453,68.0639 L 79.28,68.0986 L 79.3217,68.1402 L 79.3703,68.168 L 79.4119,68.1958 L 79.4605,68.2305 L 79.5161,68.2582 L 79.5716,68.2791 L 79.6202,68.3138 L 79.6896,68.3277 L 79.7451,68.3554 L 79.8076,68.3693 L 79.8701,68.3901 L 79.9395,68.404 L 80.002,68.4179 L 80.0784,68.4318 L 80.1408,68.4457 L 80.2103,68.4457 L 80.2727,68.4457 L 80.3491,68.4526 L 80.4255,68.4526 L 80.4255,68.4526 L 80.481,68.4526 L 80.5643,68.4457 L 80.6337,68.4457 L 80.6962,68.4457 L 80.7656,68.4318 L 80.8281,68.4179 L 80.9045,68.404 L 80.9669,68.3901 L 81.0364,68.3693 L 81.0919,68.3554 L 81.1544,68.3277 L 81.2168,68.3138 L 81.2654,68.2791 L 81.3279,68.2582 L 81.3835,68.2305 L 81.4321,68.1958 L 81.4737,68.168 L 81.5223,68.1402 L 81.564,68.0986 L 81.6056,68.0639 L 81.6403,68.0222 L 81.6611,67.9944 L 81.6958,67.9528 L 81.7306,67.9181 L 81.7444,67.8695 L 81.7722,67.8348 L 81.7792,67.7931 L 81.8,67.7515 L 81.8069,67.7098 L 81.8139,67.6682 L 81.8139,67.6196z"/>
    <path style="fill: none; fill-opacity:0; stroke-width: 0.02; stroke: #dbdbce" d="M 81.6334 67.5363 L 81.6334,67.4946 L 81.6264,67.453 L 81.6264,67.4183 L 81.6056,67.3905 L 81.5917,67.335 L 81.5848,67.3141 L 81.5501,67.2725 L 81.5223,67.2308 L 81.5015,67.2031 L 81.4737,67.1753 L 81.4321,67.1475 L 81.3973,67.0989 L 81.3557,67.0712 L 81.314,67.0503 L 81.2793,67.0156 L 81.2238,66.9879 L 81.1821,66.974 L 81.1335,66.9393 L 81.085,66.9254 L 81.0225,66.8976 L 80.9669,66.8837 L 80.9045,66.8698 L 80.8489,66.849 L 80.7864,66.8351 L 80.724,66.8282 L 80.6545,66.8074 L 80.599,66.8004 L 80.5226,66.7935 L 80.4671,66.7935 L 80.3977,66.7935 L 80.3352,66.7935 L 80.3352,66.7935 L 80.2658,66.7935 L 80.2033,66.7935 L 80.1339,66.7935 L 80.0784,66.8004 L 80.0089,66.8074 L 79.9534,66.8282 L 79.877,66.8351 L 79.8215,66.849 L 79.7729,66.8698 L 79.7035,66.8837 L 79.6479,66.8976 L 79.5785,66.9254 L 79.5438,66.9393 L 79.4813,66.974 L 79.4397,66.9879 L 79.3911,67.0156 L 79.3494,67.0503 L 79.3078,67.0712 L 79.2661,67.0989 L 79.2314,67.1475 L 79.1967,67.1753 L 79.1689,67.2031 L 79.1342,67.2308 L 79.1204,67.2725 L 79.0926,67.3141 L 79.0787,67.335 L 79.0648,67.3905 L 79.0509,67.4183 L 79.044,67.453 L 79.0371,67.4946 L 79.0371,67.5363 L 79.0371,67.5363 L 79.0371,67.571 L 79.044,67.6126 L 79.0509,67.6543 L 79.0648,67.6751 L 79.0787,67.7168 L 79.0926,67.7584 L 79.1204,67.7931 L 79.1342,67.8278 L 79.1689,67.8695 L 79.1967,67.8903 L 79.2314,67.925 L 79.2661,67.9597 L 79.3078,67.9944 L 79.3494,68.0153 L 79.3911,68.05 L 79.4397,68.0708 L 79.4813,68.0986 L 79.5438,68.1263 L 79.5785,68.1402 L 79.6479,68.168 L 79.7035,68.1888 L 79.7729,68.1958 L 79.8215,68.2166 L 79.877,68.2305 L 79.9534,68.2374 L 80.0089,68.2582 L 80.0784,68.2721 L 80.1339,68.2721 L 80.2033,68.2721 L 80.2658,68.2721 L 80.3352,68.2721 L 80.3352,68.2721 L 80.3977,68.2721 L 80.4671,68.2721 L 80.5226,68.2721 L 80.599,68.2721 L 80.6545,68.2582 L 80.724,68.2374 L 80.7864,68.2305 L 80.8489,68.2166 L 80.9045,68.1958 L 80.9669,68.1888 L 81.0225,68.168 L 81.085,68.1402 L 81.1335,68.1263 L 81.1821,68.0986 L 81.2238,68.0708 L 81.2793,68.05 L 81.314,68.0153 L 81.3557,67.9944 L 81.3973,67.9597 L 81.4321,67.925 L 81.4737,67.8903 L 81.5015,67.8695 L 81.5223,67.8278 L 81.5501,67.7931 L 81.5848,67.7584 L 81.5917,67.7168 L 81.6056,67.6751 L 81.6264,67.6543 L 81.6264,67.6126 L 81.6334,67.571 L 81.6334,67.5363"/>
    <path style="fill: none; fill-opacity:0; stroke-width: 0.02; stroke: #626248" d="M 77.1835 68.2721 L 77.1835,68.3554 L 77.1974,68.4179 L 77.2252,68.4943 L 77.246,68.5776 L 77.2877,68.647 L 77.3293,68.7095 L 77.3918,68.7858 L 77.4543,68.8622 L 77.5237,68.9247 L 77.5931,68.9941 L 77.6834,69.0566 L 77.7667,69.126 L 77.8777,69.1815 L 77.9819,69.2371 L 78.0929,69.2857 L 78.2109,69.3481 L 78.3428,69.3967 L 78.4609,69.4453 L 78.6136,69.487 L 78.7524,69.5286 L 78.8982,69.5772 L 79.044,69.6119 L 79.1967,69.6328 L 79.3494,69.6605 L 79.5161,69.6883 L 79.6757,69.7022 L 79.8354,69.73 L 80.002,69.7438 L 80.1755,69.7508 L 80.3422,69.7508 L 80.5088,69.7508"/>
    <path style="fill: none; fill-opacity:0; stroke-width: 0.02; stroke: #626248" d="M 80.1339 69.7508 L 80.3074,69.7508 L 80.4671,69.7508 L 80.6407,69.7369 L 80.7934,69.7161 L 80.9531,69.7022 L 81.1197,69.6883 L 81.2654,69.6605 L 81.4251,69.6258 L 81.564,69.5911 L 81.7167,69.5633 L 81.8625,69.5217 L 81.9944,69.48 L 82.1263,69.4314 L 82.2512,69.369 L 82.3762,69.3204 L 82.4803,69.2648 L 82.5914,69.2093 L 82.6886,69.1399 L 82.7788,69.0843 L 82.8691,69.008 L 82.9454,68.9524 L 83.0218,68.883 L 83.0843,68.7997 L 83.1259,68.7234 L 83.1884,68.6609 L 83.2162,68.5776 L 83.2509,68.5012 L 83.2786,68.4179 L 83.2786,68.3554 L 83.2925,68.2721"/>
    <path style="fill: none; fill-opacity:0; stroke-width: 0.02; stroke: #626248" d="M 80.8767 65.4884 L 80.717,65.4884 L 80.5504,65.4953 L 80.3838,65.4953 L 80.2172,65.5092 L 80.0436,65.53 L 79.877,65.537 L 79.7313,65.5647 L 79.5646,65.5856 L 79.4119,65.6272 L 79.2661,65.6411 L 79.1204,65.6827 L 78.9815,65.7105 L 78.8427,65.7591 L 78.7177,65.8008 L 78.5928,65.8424 L 78.4609,65.8841 L 78.3567,65.9327 L 78.2457,65.9813 L 78.1485,66.0437 L 78.0582,66.0993 L 77.9749,66.1479 L 77.8916,66.2173 L 77.8083,66.2659 L 77.7597,66.3214 L 77.7042,66.3978 L 77.6556,66.4533 L 77.6139,66.5227 L 77.5862,66.5783 L 77.5653,66.6407 L 77.5584,66.7171 L 77.5515,66.7865"/>
    <path style="fill: none; fill-opacity:0; stroke-width: 0.02; stroke: #626248" d="M 83.6674 66.7865 L 83.6535,66.7102 L 83.6466,66.6407 L 83.6327,66.5783 L 83.598,66.5089 L 83.5563,66.4464 L 83.5077,66.377 L 83.4522,66.3214 L 83.3897,66.2589 L 83.3203,66.1895 L 83.237,66.134 L 83.1537,66.0715 L 83.0634,66.016 L 82.9524,65.9674 L 82.8552,65.9188 L 82.7372,65.8702 L 82.6261,65.8146 L 82.5011,65.773 L 82.3692,65.7383 L 82.2234,65.6966 L 82.0846,65.6689 L 81.9458,65.6272 L 81.8,65.5994 L 81.6473,65.5717 L 81.4806,65.5439 L 81.3349,65.53 L 81.1752,65.5092 L 81.0086,65.4953 L 80.835,65.4953 L 80.6823,65.4884 L 80.5088,65.4884"/>
    <path style="fill: #7a7a5a" d="M 109.679 57.4773 L 95.3855,71.8195 L 95.3855,70.5144 L 109.679,56.1722 L 109.679,57.4773z"/>
    <path style="fill: none; fill-opacity:0; stroke-width: 0.02; stroke: #494936" d="M 109.679 57.4773 L 95.3855,71.8195 L 95.3855,70.5144 L 109.679,56.1722 L 109.679,57.4773"/>
    <path style="fill: #7a7a5a" d="M 104.854 55.0753 L 104.854,55.4294 L 107.638,55.4294 L 107.638,55.0753 L 104.854,55.0753z"/>
    <path style="fill: none; fill-opacity:0; stroke-width: 0.02; stroke: #494936" d="M 104.854 55.0753 L 104.854,55.4294 L 107.638,55.4294 L 107.638,55.0753 L 104.854,55.0753"/>
    <path style="fill: none; fill-opacity:0; stroke-width: 0.02; stroke: #000000" d="M 104.091 59.1572 L 75.684,59.1572"/>
    <path style="fill: none; fill-opacity:0; stroke-width: 0.02; stroke: #000000" d="M 102.244 61.0246 L 73.8375,61.0246"/>
    <path style="fill: none; fill-opacity:0; stroke-width: 0.02; stroke: #000000" d="M 100.391 62.8851 L 71.977,62.8851"/>
    <path style="fill: #c9c9b6" d="M 76.6143 32 L 110.609,32 L 109.679,32.9163 L 75.684,32.9163 L 76.6143,32z"/>
    <path style="fill: none; fill-opacity:0; stroke-width: 0.02; stroke: #494936" d="M 76.6143 32 L 110.609,32 L 109.679,32.9163 L 75.684,32.9163 L 76.6143,32"/>
  </g>
  <text font-size="12.8" style="fill: #000000;text-anchor:middle;font-family:sans-serif;font-style:normal;font-weight:normal" x="93.6084" y="28.95">
    <tspan x="93.6084" y="28.95">Mail Sender</tspan>
  </text>
  <g>
    <path style="fill: #b7b79d" d="M 361.352 72.3929 L 361.352,41.54 L 373.806,41.54 L 373.806,72.3929 L 361.352,72.3929z"/>
    <path style="fill: none; fill-opacity:0; stroke-width: 0.02; stroke: #494936" d="M 361.352 72.3929 L 361.352,41.54 L 373.806,41.54 L 373.806,72.3929 L 361.352,72.3929"/>
    <path style="fill: #a5a585" d="M 373.806 72.3929 L 373.806,41.54 L 386.266,41.54 L 386.266,72.3929 L 373.806,72.3929z"/>
    <path style="fill: none; fill-opacity:0; stroke-width: 0.02; stroke: #494936" d="M 373.806 72.3929 L 373.806,41.54 L 386.266,41.54 L 386.266,72.3929 L 373.806,72.3929"/>
    <path style="fill: #7a7a5a" d="M 392.766 65.8479 L 392.766,35 L 386.266,41.54 L 386.266,72.3929 L 392.766,65.8479z"/>
    <path style="fill: none; fill-opacity:0; stroke-width: 0.02; stroke: #494936" d="M 392.766 65.8479 L 392.766,35 L 386.266,41.54 L 386.266,72.3929 L 392.766,65.8479"/>
    <path style="fill: #c9c9b6" d="M 367.852 35 L 361.352,41.54 L 386.266,41.54 L 392.766,35 L 367.852,35z"/>
    <path style="fill: none; fill-opacity:0; stroke-width: 0.02; stroke: #494936" d="M 367.852 35 L 361.352,41.54 L 386.266,41.54 L 392.766,35 L 367.852,35"/>
    <path style="fill: none; fill-opacity:0; stroke-width: 0.02; stroke: #7a7a5a" d="M 379.567 35.7449 L 374.551,40.7952"/>
    <path style="fill: #b7b79d" d="M 367.664 72.1943 L 361.352,72.1943 L 361.362,72.3333 L 361.387,72.4773 L 361.422,72.6164 L 361.481,72.7604 L 361.556,72.8945 L 361.64,73.0335 L 361.749,73.1676 L 361.868,73.2967 L 361.993,73.4209 L 362.142,73.55 L 362.305,73.6791 L 362.484,73.7883 L 362.673,73.9025 L 362.877,74.0118 L 363.09,74.121 L 363.314,74.2204 L 363.557,74.3197 L 363.8,74.3991 L 364.058,74.4885 L 364.327,74.568 L 364.6,74.6325 L 364.883,74.707 L 365.181,74.7666 L 365.474,74.8163 L 365.772,74.8659 L 366.084,74.8957 L 366.392,74.9354 L 366.71,74.9553 L 367.028,74.9752 L 367.346,74.9851 L 367.664,74.9901 L 367.981,74.9851 L 368.299,74.9752 L 368.617,74.9553 L 368.935,74.9354 L 369.243,74.8957 L 369.556,74.8659 L 369.854,74.8163 L 370.147,74.7666 L 370.444,74.707 L 370.728,74.6325 L 371.001,74.568 L 371.269,74.4885 L 371.527,74.3991 L 371.77,74.3197 L 372.014,74.2204 L 372.237,74.121 L 372.446,74.0118 L 372.654,73.9025 L 372.843,73.7883 L 373.022,73.6791 L 373.186,73.55 L 373.33,73.4209 L 373.454,73.2967 L 373.578,73.1676 L 373.687,73.0335 L 373.772,72.8945 L 373.841,72.7604 L 373.906,72.6164 L 373.935,72.4773 L 373.965,72.3333 L 373.975,72.1943 L 367.664,72.1943z"/>
    <path style="fill: none; fill-opacity:0; stroke-width: 0.02; stroke: #494936" d="M 361.352 72.1943 L 361.362,72.3333 L 361.387,72.4773 L 361.422,72.6164 L 361.481,72.7604 L 361.556,72.8945 L 361.64,73.0335 L 361.749,73.1676 L 361.868,73.2967 L 361.993,73.4209 L 362.142,73.55 L 362.305,73.6791 L 362.484,73.7883 L 362.673,73.9025 L 362.877,74.0118 L 363.095,74.121 L 363.318,74.2204 L 363.557,74.3197 L 363.8,74.3991 L 364.063,74.4885 L 364.332,74.568 L 364.605,74.6325 L 364.883,74.707 L 365.181,74.7666 L 365.474,74.8163 L 365.777,74.8659 L 366.089,74.8957 L 366.392,74.9354 L 366.71,74.9553 L 367.028,74.9752 L 367.346,74.9851 L 367.669,74.9901 L 367.986,74.9851 L 368.304,74.9752 L 368.622,74.9553 L 368.94,74.9354 L 369.243,74.8957 L 369.556,74.8659 L 369.859,74.8163 L 370.156,74.7666 L 370.449,74.707 L 370.728,74.6325 L 371.001,74.568 L 371.269,74.4885 L 371.532,74.3991 L 371.78,74.3197 L 372.014,74.2204 L 372.237,74.121 L 372.456,74.0118 L 372.659,73.9025 L 372.848,73.7883 L 373.027,73.6791 L 373.191,73.55 L 373.34,73.4209 L 373.464,73.2967 L 373.588,73.1676 L 373.687,73.0335 L 373.777,72.8945 L 373.856,72.7604 L 373.906,72.6164 L 373.945,72.4773 L 373.975,72.3333 L 373.98,72.1943"/>
    <path style="fill: #93936c" d="M 370.092 43.9683 L 370.092,45.473 L 370.092,47.1515 L 370.092,49.2073 L 370.092,51.2632 L 370.092,55.9361 L 370.092,60.7927 L 370.092,63.0422 L 370.092,65.2818 L 370.092,67.1539 L 370.092,68.8374 L 370.092,70.3371 L 370.092,71.4494 L 370.092,72.0155 L 370.092,72.3929 L 373.806,72.3929 L 373.806,41.7238 L 373.623,41.7238 L 373.806,41.9174 L 373.806,42.1012 L 373.255,42.6623 L 372.317,43.2235 L 371.204,43.5959 L 370.092,43.9683z"/>
    <path style="fill: #93936c" d="M 370.092 74.6325 L 371.393,74.2551 L 372.505,73.6989 L 373.061,73.5053 L 373.439,73.1328 L 373.623,72.5767 L 373.806,72.1993 L 373.439,72.1993 L 373.061,72.1993 L 372.505,72.1993 L 371.393,72.1993 L 370.092,72.1993 L 370.092,72.9491 L 370.092,73.6989 L 370.092,74.0714 L 370.092,74.4488 L 370.092,74.6325z"/>
    <path style="fill: #c9c9b6" d="M 361.908 41.1676 L 361.352,41.7238 L 373.806,41.7238 L 373.806,41.1676 L 361.908,41.1676z"/>
    <path style="fill: #c9c9b6" d="M 367.664 41.5351 L 361.352,41.5351 L 361.362,41.6691 L 361.387,41.8181 L 361.422,41.9522 L 361.481,42.1012 L 361.556,42.2303 L 361.64,42.3743 L 361.749,42.5084 L 361.868,42.6325 L 361.993,42.7616 L 362.142,42.8858 L 362.305,43.0199 L 362.484,43.1291 L 362.673,43.2433 L 362.877,43.3526 L 363.09,43.4618 L 363.314,43.5611 L 363.557,43.6555 L 363.8,43.7449 L 364.058,43.8293 L 364.327,43.9038 L 364.6,43.9733 L 364.883,44.0528 L 365.181,44.1074 L 365.474,44.1521 L 365.772,44.2067 L 366.084,44.2415 L 366.392,44.2762 L 366.71,44.2961 L 367.028,44.316 L 367.346,44.3259 L 367.664,44.3309 L 367.981,44.3259 L 368.299,44.316 L 368.617,44.2961 L 368.935,44.2762 L 369.243,44.2415 L 369.556,44.2067 L 369.854,44.1521 L 370.147,44.1074 L 370.444,44.0528 L 370.728,43.9733 L 371.001,43.9038 L 371.269,43.8293 L 371.527,43.7449 L 371.77,43.6555 L 372.014,43.5611 L 372.237,43.4618 L 372.446,43.3526 L 372.654,43.2433 L 372.843,43.1291 L 373.022,43.0199 L 373.186,42.8858 L 373.33,42.7616 L 373.454,42.6325 L 373.578,42.5084 L 373.687,42.3743 L 373.772,42.2303 L 373.841,42.1012 L 373.906,41.9522 L 373.935,41.8181 L 373.965,41.6691 L 373.975,41.5351 L 367.664,41.5351z"/>
    <path style="fill: none; fill-opacity:0; stroke-width: 0.02; stroke: #494936" d="M 361.352 41.5351 L 361.362,41.6691 L 361.387,41.8181 L 361.422,41.9522 L 361.481,42.1012 L 361.556,42.2303 L 361.64,42.3743 L 361.749,42.5084 L 361.868,42.6325 L 361.993,42.7616 L 362.142,42.8858 L 362.305,43.0199 L 362.484,43.1291 L 362.673,43.2433 L 362.877,43.3526 L 363.095,43.4618 L 363.318,43.5611 L 363.557,43.6555 L 363.8,43.7449 L 364.063,43.8293 L 364.332,43.9038 L 364.605,43.9733 L 364.883,44.0528 L 365.181,44.1074 L 365.474,44.1521 L 365.777,44.2067 L 366.089,44.2415 L 366.392,44.2762 L 366.71,44.2961 L 367.028,44.316 L 367.346,44.3259 L 367.669,44.3309 L 367.986,44.3259 L 368.304,44.316 L 368.622,44.2961 L 368.94,44.2762 L 369.243,44.2415 L 369.556,44.2067 L 369.859,44.1521 L 370.156,44.1074 L 370.449,44.0528 L 370.728,43.9733 L 371.001,43.9038 L 371.269,43.8293 L 371.532,43.7449 L 371.78,43.6555 L 372.014,43.5611 L 372.237,43.4618 L 372.456,43.3526 L 372.659,43.2433 L 372.848,43.1291 L 373.027,43.0199 L 373.191,42.8858 L 373.34,42.7616 L 373.464,42.6325 L 373.588,42.5084 L 373.687,42.3743 L 373.777,42.2303 L 373.856,42.1012 L 373.906,41.9522 L 373.945,41.8181 L 373.975,41.6691 L 373.98,41.5351"/>
    <path style="fill: none; fill-opacity:0; stroke-width: 0.02; stroke: #7a7a5a" d="M 362.469 41.54 L 372.689,41.54"/>
    <path style="fill: #93936c" d="M 373.995 72.1993 L 373.995,41.7238 L 376.225,41.7238 L 376.225,72.1993 L 373.995,72.1993z"/>
    <path style="fill: #93936c" d="M 375.852 50.6971 L 375.852,43.5959 L 384.21,43.5959 L 384.21,50.6971 L 375.852,50.6971z"/>
    <path style="fill: none; fill-opacity:0; stroke-width: 0.02; stroke: #494936" d="M 375.852 50.6971 L 375.852,43.5959 L 384.21,43.5959 L 384.21,50.6971 L 375.852,50.6971"/>
    <path style="fill: #7a7a5a" d="M 376.041 50.6971 L 376.041,43.7846 L 376.225,43.7846 L 376.225,50.6971 L 376.041,50.6971z"/>
    <path style="fill: #d4000a" d="M 361.541 42.1012 L 362.092,42.6623 L 362.092,73.3215 L 361.541,72.7654 L 361.541,42.1012z"/>
    <path style="fill: none; fill-opacity:0; stroke-width: 0.02; stroke: #494936" d="M 361.352 41.5351 L 361.362,41.6691 L 361.387,41.8181 L 361.422,41.9522 L 361.481,42.1012 L 361.556,42.2303 L 361.64,42.3743 L 361.749,42.5084 L 361.868,42.6325 L 361.993,42.7616 L 362.142,42.8858 L 362.305,43.0199 L 362.484,43.1291 L 362.673,43.2433 L 362.877,43.3526 L 363.095,43.4618 L 363.318,43.5611 L 363.557,43.6555 L 363.8,43.7449 L 364.063,43.8293 L 364.332,43.9038 L 364.605,43.9733 L 364.883,44.0528 L 365.181,44.1074 L 365.474,44.1521 L 365.777,44.2067 L 366.089,44.2415 L 366.392,44.2762 L 366.71,44.2961 L 367.028,44.316 L 367.346,44.3259 L 367.669,44.3309 L 367.986,44.3259 L 368.304,44.316 L 368.622,44.2961 L 368.94,44.2762 L 369.243,44.2415 L 369.556,44.2067 L 369.859,44.1521 L 370.156,44.1074 L 370.449,44.0528 L 370.728,43.9733 L 371.001,43.9038 L 371.269,43.8293 L 371.532,43.7449 L 371.78,43.6555 L 372.014,43.5611 L 372.237,43.4618 L 372.456,43.3526 L 372.659,43.2433 L 372.848,43.1291 L 373.027,43.0199 L 373.191,42.8858 L 373.34,42.7616 L 373.464,42.6325 L 373.588,42.5084 L 373.687,42.3743 L 373.777,42.2303 L 373.856,42.1012 L 373.906,41.9522 L 373.945,41.8181 L 373.975,41.6691 L 373.98,41.5351"/>
    <path style="fill: none; fill-opacity:0; stroke-width: 0.02; stroke: #494936" d="M 361.352 72.2737 L 361.362,72.4128 L 361.382,72.5469 L 361.422,72.6859 L 361.471,72.815 L 361.541,72.9491 L 361.63,73.0832 L 361.724,73.2123 L 361.849,73.3364 L 361.968,73.4556 L 362.117,73.5847 L 362.271,73.6989 L 362.444,73.8132 L 362.628,73.9224 L 362.822,74.0267 L 363.04,74.131 L 363.259,74.2303 L 363.482,74.3197 L 363.731,74.414 L 363.984,74.4885 L 364.247,74.568 L 364.52,74.6325 L 364.788,74.702 L 365.081,74.7567 L 365.374,74.8163 L 365.672,74.856 L 365.975,74.8957 L 366.278,74.9354 L 366.591,74.9553 L 366.909,74.9752 L 367.227,74.9901 L 367.544,75 L 367.852,75 L 368.17,74.9901 L 368.488,74.9752 L 368.801,74.9553 L 369.109,74.9255 L 369.412,74.8908 L 369.719,74.851 L 370.022,74.8014 L 370.31,74.7517 L 370.584,74.6872 L 370.867,74.6226 L 371.135,74.5531 L 371.398,74.4736 L 371.651,74.3842 L 371.89,74.3048 L 372.118,74.2154 L 372.336,74.1161 L 372.55,74.0068 L 372.739,73.9025 L 372.922,73.7883 L 373.091,73.6791 L 373.255,73.5549 L 373.394,73.4358 L 373.513,73.3116 L 373.628,73.1825 L 373.717,73.0534 L 373.806,72.9292 L 373.876,72.7952 L 373.921,72.6611 L 373.96,72.522 L 373.975,72.3929 L 373.98,72.2489"/>
    <path style="fill: #a5a585" d="M 387.006 72.3929 L 387.006,50.6971 L 394.44,50.6971 L 394.44,72.3929 L 387.006,72.3929z"/>
    <path style="fill: none; fill-opacity:0; stroke-width: 0.02; stroke: #494936" d="M 387.006 72.3929 L 387.006,50.6971 L 394.44,50.6971 L 394.44,72.3929 L 387.006,72.3929"/>
    <path style="fill: #a5a585" d="M 394.44 72.3929 L 394.44,50.6971 L 401.868,50.6971 L 401.868,72.3929 L 394.44,72.3929z"/>
    <path style="fill: none; fill-opacity:0; stroke-width: 0.02; stroke: #494936" d="M 394.44 72.3929 L 394.44,50.6971 L 401.868,50.6971 L 401.868,72.3929 L 394.44,72.3929"/>
    <path style="fill: #a5a585" d="M 401.868 72.3929 L 401.868,50.6971 L 409.307,50.6971 L 409.307,72.3929 L 401.868,72.3929z"/>
    <path style="fill: none; fill-opacity:0; stroke-width: 0.02; stroke: #494936" d="M 401.868 72.3929 L 401.868,50.6971 L 409.307,50.6971 L 409.307,72.3929 L 401.868,72.3929"/>
    <path style="fill: #c9c9b6" d="M 390.353 47.3352 L 387.006,50.6971 L 394.44,50.6971 L 397.787,47.3352 L 390.353,47.3352z"/>
    <path style="fill: none; fill-opacity:0; stroke-width: 0.02; stroke: #494936" d="M 390.353 47.3352 L 387.006,50.6971 L 394.44,50.6971 L 397.787,47.3352 L 390.353,47.3352"/>
    <path style="fill: #c9c9b6" d="M 397.787 47.3352 L 394.44,50.6971 L 401.868,50.6971 L 405.21,47.3352 L 397.787,47.3352z"/>
    <path style="fill: none; fill-opacity:0; stroke-width: 0.02; stroke: #494936" d="M 397.787 47.3352 L 394.44,50.6971 L 401.868,50.6971 L 405.21,47.3352 L 397.787,47.3352"/>
    <path style="fill: #c9c9b6" d="M 405.21 47.3352 L 401.868,50.6971 L 409.307,50.6971 L 412.649,47.3352 L 405.21,47.3352z"/>
    <path style="fill: none; fill-opacity:0; stroke-width: 0.02; stroke: #494936" d="M 405.21 47.3352 L 401.868,50.6971 L 409.307,50.6971 L 412.649,47.3352 L 405.21,47.3352"/>
    <path style="fill: #7a7a5a" d="M 412.649 69.2098 L 409.307,72.3929 L 409.307,50.6971 L 412.649,47.3352 L 412.649,69.2098z"/>
    <path style="fill: none; fill-opacity:0; stroke-width: 0.02; stroke: #494936" d="M 412.649 69.2098 L 409.307,72.3929 L 409.307,50.6971 L 412.649,47.3352 L 412.649,69.2098"/>
    <path style="fill: #93936c" d="M 402.986 55.5587 L 402.986,51.6356 L 408.374,51.6356 L 408.374,55.5587 L 402.986,55.5587z"/>
    <path style="fill: none; fill-opacity:0; stroke-width: 0.02; stroke: #494936" d="M 402.986 55.5587 L 402.986,51.6356 L 408.374,51.6356 L 408.374,55.5587 L 402.986,55.5587"/>
    <path style="fill: #93936c" d="M 402.986 60.4202 L 402.986,56.6859 L 408.374,56.6859 L 408.374,60.4202 L 402.986,60.4202z"/>
    <path style="fill: none; fill-opacity:0; stroke-width: 0.02; stroke: #494936" d="M 402.986 60.4202 L 402.986,56.6859 L 408.374,56.6859 L 408.374,60.4202 L 402.986,60.4202"/>
    <path style="fill: #93936c" d="M 402.986 71.077 L 402.986,67.3377 L 408.374,67.3377 L 408.374,71.077 L 402.986,71.077z"/>
    <path style="fill: none; fill-opacity:0; stroke-width: 0.02; stroke: #494936" d="M 402.986 71.077 L 402.986,67.3377 L 408.374,67.3377 L 408.374,71.077 L 402.986,71.077"/>
  </g>
  <text font-size="12.8" style="fill: #000000;text-anchor:middle;font-family:sans-serif;font-style:normal;font-weight:normal" x="380.306" y="31.95">
    <tspan x="380.306" y="31.95">Recipient's Mail Server</tspan>
  </text>
  <line style="fill: none; fill-opacity:0; stroke-width: 2; stroke-dasharray: 4; stroke: #000000" x1="78.3846" y1="72" x2="79" y2="154.5"/>
  <line style="fill: none; fill-opacity:0; stroke-width: 2; stroke-dasharray: 4; stroke: #000000" x1="371.134" y1="75" x2="372" y2="146"/>
  <g>
    <path style="fill: none; fill-opacity:0; stroke-width: 2; stroke: #000000" d="M 363.299,147.415 A 6623.68,6623.68 0 0 0 85,132"/>
    <polyline style="fill: none; fill-opacity:0; stroke-width: 2; stroke: #000000" points="355.173,151.801 365.529,147.585 355.943,141.83 "/>
  </g>
  <text font-size="12.8" style="fill: #000000;text-anchor:start;font-family:sans-serif;font-style:normal;font-weight:normal" x="80" y="59.95">
    <tspan x="80" y="59.95"></tspan>
    <tspan x="80" y="75.95"></tspan>
    <tspan x="80" y="91.95">Pre-flight request.</tspan>
    <tspan x="80" y="107.95">Ask about mail delivery to particular</tspan>
    <tspan x="80" y="123.95">recipient, without starting session</tspan>
  </text>
  <g>
    <ellipse style="fill: #ffffff" cx="80" cy="132" rx="5" ry="5"/>
    <ellipse style="fill: none; fill-opacity:0; stroke-width: 2; stroke: #000000" cx="80" cy="132" rx="5" ry="5"/>
  </g>
  <g>
    <ellipse style="fill: #ffffff" cx="372" cy="152" rx="6" ry="6"/>
    <ellipse style="fill: none; fill-opacity:0; stroke-width: 2; stroke: #000000" cx="372" cy="152" rx="6" ry="6"/>
  </g>
  <text font-size="12.8" style="fill: #000000;text-anchor:end;font-family:sans-serif;font-style:normal;font-weight:normal" x="75" y="143.9">
    <tspan x="75" y="143.9">Pre-Flight</tspan>
    <tspan x="75" y="159.9">Request</tspan>
  </text>
  <g>
    <ellipse style="fill: #ffffff" cx="79" cy="160" rx="5.5" ry="5.5"/>
    <ellipse style="fill: none; fill-opacity:0; stroke-width: 2; stroke: #000000" cx="79" cy="160" rx="5.5" ry="5.5"/>
  </g>
  <g>
    <line style="fill: none; fill-opacity:0; stroke-width: 2; stroke: #000000" x1="372" y1="158" x2="88.972" y2="159.969"/>
    <polyline style="fill: none; fill-opacity:0; stroke-width: 2; stroke: #000000" points="96.701,154.915 86.736,159.984 96.7706,164.915 "/>
  </g>
  <text font-size="12.8" style="fill: #000000;text-anchor:end;font-family:sans-serif;font-style:normal;font-weight:normal" x="367.758" y="168.143">
    <tspan x="367.758" y="168.143"></tspan>
    <tspan x="367.758" y="184.143">OK response shall have allowed</tspan>
    <tspan x="367.758" y="200.143">message maximum size.</tspan>
  </text>
  <text font-size="12.8" style="fill: #000000;text-anchor:start;font-family:sans-serif;font-style:normal;font-weight:normal" x="332" y="233">
    <tspan x="332" y="233">No Session opened</tspan>
  </text>
</svg>
