<?xml version="1.0" encoding="UTF-8" standalone="no"?>
<!DOCTYPE svg PUBLIC "-//W3C//DTD SVG 1.0//EN" "http://www.w3.org/TR/2001/PR-SVG-20010719/DTD/svg10.dtd">
<svg width="30cm" height="16cm" viewBox="94 35 592 312" xmlns="http://www.w3.org/2000/svg" xmlns:xlink="http://www.w3.org/1999/xlink">
  <g>
    <path style="fill: #e4b070" d="M 103.118 187.259 L 103.806,192.064 L 105.896,195.48 L 108.673,197.313 L 110.756,197.771 L 113.533,198 L 116.554,193.202 L 116.554,176.504 L 110.999,179.718 L 103.118,187.259z"/>
    <path style="fill: #e4b070" d="M 130.211 167.596 L 136.932,165.54 L 140.876,165.318 L 142.25,165.54 L 144.097,166.915 L 145.035,167.596 L 145.729,169.206 L 145.035,170.56 L 143.639,170.796 L 141.327,170.796 L 140.876,169.429 L 139.695,169.429 L 136.002,170.116 L 134.835,170.56 L 130.211,167.596z"/>
    <path style="fill: #e4b070" d="M 130.211 167.596 L 136.932,165.54 L 140.876,165.318 L 142.25,165.54 L 144.097,166.915 L 145.035,167.596 L 145.729,169.206 L 145.035,170.56 L 143.639,170.796 L 141.327,170.796 L 140.876,169.429 L 139.695,169.429 L 136.002,170.116 L 134.835,170.56 L 130.211,167.596z"/>
    <path style="fill: none; fill-opacity:0; stroke-width: 0.02; stroke: #000000" d="M 130.211 167.596 L 136.932,165.54 L 140.876,165.318 L 142.25,165.54 L 144.097,166.915 L 145.035,167.596 L 145.729,169.206 L 145.035,170.56 L 143.639,170.796 L 141.327,170.796 L 140.876,169.429 L 139.695,169.429 L 136.002,170.116 L 134.835,170.56"/>
    <path style="fill: #e4b070" d="M 115.387 174.914 L 129.975,173.546 L 139.473,173.081 L 142.952,172.622 L 144.097,172.622 L 144.792,173.775 L 144.556,174.692 L 143.875,175.83 L 142.021,176.288 L 138.786,176.969 L 135.314,178.802 L 132.981,180.628 L 128.121,185.204 L 123.726,189.307 L 120.942,189.994 L 113.075,198 L 115.387,174.914z"/>
    <path style="fill: #e4b070" d="M 115.387 174.914 L 129.975,173.546 L 139.473,173.081 L 142.952,172.622 L 144.097,172.622 L 144.792,173.775 L 144.556,174.692 L 143.875,175.83 L 142.021,176.288 L 138.786,176.969 L 135.314,178.802 L 132.981,180.628 L 128.121,185.204 L 123.726,189.307 L 120.942,189.994 L 113.075,198 L 115.387,174.914z"/>
    <path style="fill: none; fill-opacity:0; stroke-width: 0.02; stroke: #000000" d="M 115.387 174.914 L 129.975,173.546 L 139.473,173.081 L 142.952,172.622 L 144.097,172.622 L 144.792,173.775 L 144.556,174.692 L 143.875,175.83 L 142.021,176.288 L 138.786,176.969 L 135.314,178.802 L 132.981,180.628 L 128.121,185.204 L 123.726,189.307 L 120.942,189.994 L 113.075,198"/>
    <path style="fill: #e4b070" d="M 120.025 168.748 L 123.497,163.721 L 127.198,160.513 L 131.134,158.68 L 134.835,158.229 L 139.23,158 L 141.098,158.917 L 141.098,160.055 L 140.876,160.972 L 138.786,161.659 L 137.397,162.11 L 134.37,163.027 L 117.699,178.802 L 120.025,168.748z"/>
    <path style="fill: #e4b070" d="M 120.025 168.748 L 123.497,163.721 L 127.198,160.513 L 131.134,158.68 L 134.835,158.229 L 139.23,158 L 141.098,158.917 L 141.098,160.055 L 140.876,160.972 L 138.786,161.659 L 137.397,162.11 L 134.37,163.027 L 117.699,178.802 L 120.025,168.748z"/>
    <path style="fill: none; fill-opacity:0; stroke-width: 0.02; stroke: #000000" d="M 120.025 168.748 L 123.497,163.721 L 127.198,160.513 L 131.134,158.68 L 134.835,158.229 L 139.098,158.007"/>
    <path style="fill: none; fill-opacity:0; stroke-width: 0.02; stroke: #000000" d="M 139.251 158.007 L 141.098,158.917 L 141.098,160.055 L 140.876,160.972 L 138.786,161.659 L 137.397,162.11 L 134.37,163.027 L 117.699,178.802"/>
    <path style="fill: #e4b070" d="M 103.348 187.023 L 110.534,180.177 L 111.221,175.143 L 112.839,173.081 L 114.693,170.56 L 115.859,168.29 L 117.005,165.776 L 118.394,163.943 L 119.56,161.881 L 120.476,162.346 L 121.414,163.943 L 121.643,166.457 L 120.942,168.29 L 120.254,169.887 L 120.254,171.491 L 120.254,173.081 L 120.72,175.372 L 121.643,177.663 L 103.348,187.023z"/>
    <path style="fill: #e4b070" d="M 103.348 187.023 L 110.534,180.177 L 111.221,175.143 L 112.839,173.081 L 114.693,170.56 L 115.859,168.29 L 117.005,165.776 L 118.394,163.943 L 119.56,161.881 L 120.476,162.346 L 121.414,163.943 L 121.643,166.457 L 120.942,168.29 L 120.254,169.887 L 120.254,171.491 L 120.254,173.081 L 120.72,175.372 L 121.643,177.663 L 103.348,187.023z"/>
    <path style="fill: none; fill-opacity:0; stroke-width: 0.02; stroke: #000000" d="M 103.348 187.023 L 110.534,180.177 L 111.221,175.143 L 112.839,173.081 L 114.693,170.56 L 115.859,168.29 L 117.005,165.776 L 118.394,163.943 L 119.56,161.881 L 120.476,162.346 L 121.414,163.943 L 121.643,166.457 L 120.942,168.29 L 120.254,169.887 L 120.254,171.491 L 120.254,173.081 L 120.72,175.372 L 121.643,177.663"/>
    <path style="fill: #888888" d="M 116.088 175.143 L 135.071,175.143 L 146.882,160.513 L 128.815,160.513 L 116.088,175.143z"/>
    <path style="fill: none; fill-opacity:0; stroke-width: 0.02; stroke: #000000" d="M 116.088 175.143 L 135.071,175.143 L 146.847,160.562"/>
    <path style="fill: none; fill-opacity:0; stroke-width: 0.02; stroke: #000000" d="M 146.847 160.513 L 128.815,160.513 L 116.088,175.143"/>
    <path style="fill: #777777" d="M 116.088 175.143 L 116.088,178.802 L 135.071,178.802 L 135.071,175.143 L 116.088,175.143z"/>
    <path style="fill: none; fill-opacity:0; stroke-width: 0.02; stroke: #000000" d="M 116.088 175.143 L 116.088,178.802 L 135.071,178.802 L 135.071,175.143 L 116.088,175.143"/>
    <path style="fill: #555555" d="M 146.882 160.513 L 146.882,163.943 L 135.071,178.802 L 135.071,175.143 L 146.882,160.513z"/>
    <path style="fill: none; fill-opacity:0; stroke-width: 0.02; stroke: #000000" d="M 146.847 163.992 L 135.071,178.802 L 135.071,175.143 L 146.847,160.562"/>
    <path style="fill: #e7ecec" d="M 129.51 161.881 L 143.639,161.881 L 135.314,172.4 L 120.476,172.4 L 129.51,161.881z"/>
    <path style="fill: none; fill-opacity:0; stroke-width: 0.02; stroke: #444444" d="M 129.51 161.881 L 143.639,161.881 L 135.314,172.4 L 120.476,172.4 L 129.51,161.881"/>
    <path style="fill: #bbbbbb" d="M 119.782 173.081 L 121.643,173.081 L 120.476,174.455 L 118.63,174.455 L 119.782,173.081z"/>
    <path style="fill: none; fill-opacity:0; stroke-width: 0.02; stroke: #222222" d="M 119.782 173.081 L 121.643,173.081 L 120.476,174.455 L 118.63,174.455 L 119.782,173.081"/>
    <path style="fill: #bbbbbb" d="M 123.018 173.081 L 124.885,173.081 L 123.726,174.455 L 121.865,174.455 L 123.018,173.081z"/>
    <path style="fill: none; fill-opacity:0; stroke-width: 0.02; stroke: #222222" d="M 123.018 173.081 L 124.885,173.081 L 123.726,174.455 L 121.865,174.455 L 123.018,173.081"/>
    <path style="fill: #bbbbbb" d="M 126.281 173.081 L 128.121,173.081 L 127.198,174.455 L 125.115,174.455 L 126.281,173.081z"/>
    <path style="fill: none; fill-opacity:0; stroke-width: 0.02; stroke: #222222" d="M 126.281 173.081 L 128.121,173.081 L 127.198,174.455 L 125.115,174.455 L 126.281,173.081"/>
    <path style="fill: #bbbbbb" d="M 129.51 173.081 L 131.363,173.081 L 130.447,174.455 L 128.579,174.455 L 129.51,173.081z"/>
    <path style="fill: none; fill-opacity:0; stroke-width: 0.02; stroke: #222222" d="M 129.51 173.081 L 131.363,173.081 L 130.447,174.455 L 128.579,174.455 L 129.51,173.081"/>
    <path style="fill: #bbbbbb" d="M 132.981 173.081 L 134.835,173.081 L 133.676,174.455 L 131.836,174.455 L 132.981,173.081z"/>
    <path style="fill: none; fill-opacity:0; stroke-width: 0.02; stroke: #222222" d="M 132.981 173.081 L 134.835,173.081 L 133.676,174.455 L 131.836,174.455 L 132.981,173.081"/>
  </g>
  <g>
    <path style="fill: #e4b070" d="M 485.118 183.259 L 485.805,188.064 L 487.895,191.48 L 490.673,193.313 L 492.756,193.771 L 495.533,194 L 498.553,189.202 L 498.553,172.504 L 492.999,175.718 L 485.118,183.259z"/>
    <path style="fill: #e4b070" d="M 512.211 163.596 L 518.932,161.54 L 522.875,161.318 L 524.25,161.54 L 526.097,162.915 L 527.034,163.596 L 527.729,165.206 L 527.034,166.56 L 525.639,166.796 L 523.327,166.796 L 522.875,165.429 L 521.695,165.429 L 518.001,166.116 L 516.835,166.56 L 512.211,163.596z"/>
    <path style="fill: #e4b070" d="M 512.211 163.596 L 518.932,161.54 L 522.875,161.318 L 524.25,161.54 L 526.097,162.915 L 527.034,163.596 L 527.729,165.206 L 527.034,166.56 L 525.639,166.796 L 523.327,166.796 L 522.875,165.429 L 521.695,165.429 L 518.001,166.116 L 516.835,166.56 L 512.211,163.596z"/>
    <path style="fill: none; fill-opacity:0; stroke-width: 0.02; stroke: #000000" d="M 512.211 163.596 L 518.932,161.54 L 522.875,161.318 L 524.25,161.54 L 526.097,162.915 L 527.034,163.596 L 527.729,165.206 L 527.034,166.56 L 525.639,166.796 L 523.327,166.796 L 522.875,165.429 L 521.695,165.429 L 518.001,166.116 L 516.835,166.56"/>
    <path style="fill: #e4b070" d="M 497.387 170.914 L 511.974,169.546 L 521.473,169.081 L 524.951,168.622 L 526.097,168.622 L 526.791,169.775 L 526.555,170.692 L 525.875,171.83 L 524.021,172.288 L 520.785,172.969 L 517.314,174.802 L 514.981,176.628 L 510.121,181.204 L 505.726,185.307 L 502.941,185.994 L 495.075,194 L 497.387,170.914z"/>
    <path style="fill: #e4b070" d="M 497.387 170.914 L 511.974,169.546 L 521.473,169.081 L 524.951,168.622 L 526.097,168.622 L 526.791,169.775 L 526.555,170.692 L 525.875,171.83 L 524.021,172.288 L 520.785,172.969 L 517.314,174.802 L 514.981,176.628 L 510.121,181.204 L 505.726,185.307 L 502.941,185.994 L 495.075,194 L 497.387,170.914z"/>
    <path style="fill: none; fill-opacity:0; stroke-width: 0.02; stroke: #000000" d="M 497.387 170.914 L 511.974,169.546 L 521.473,169.081 L 524.951,168.622 L 526.097,168.622 L 526.791,169.775 L 526.555,170.692 L 525.875,171.83 L 524.021,172.288 L 520.785,172.969 L 517.314,174.802 L 514.981,176.628 L 510.121,181.204 L 505.726,185.307 L 502.941,185.994 L 495.075,194"/>
    <path style="fill: #e4b070" d="M 502.025 164.748 L 505.496,159.721 L 509.197,156.513 L 513.134,154.68 L 516.835,154.229 L 521.23,154 L 523.098,154.917 L 523.098,156.055 L 522.875,156.972 L 520.785,157.659 L 519.397,158.11 L 516.37,159.027 L 499.699,174.802 L 502.025,164.748z"/>
    <path style="fill: #e4b070" d="M 502.025 164.748 L 505.496,159.721 L 509.197,156.513 L 513.134,154.68 L 516.835,154.229 L 521.23,154 L 523.098,154.917 L 523.098,156.055 L 522.875,156.972 L 520.785,157.659 L 519.397,158.11 L 516.37,159.027 L 499.699,174.802 L 502.025,164.748z"/>
    <path style="fill: none; fill-opacity:0; stroke-width: 0.02; stroke: #000000" d="M 502.025 164.748 L 505.496,159.721 L 509.197,156.513 L 513.134,154.68 L 516.835,154.229 L 521.098,154.007"/>
    <path style="fill: none; fill-opacity:0; stroke-width: 0.02; stroke: #000000" d="M 521.251 154.007 L 523.098,154.917 L 523.098,156.055 L 522.875,156.972 L 520.785,157.659 L 519.397,158.11 L 516.37,159.027 L 499.699,174.802"/>
    <path style="fill: #e4b070" d="M 485.347 183.023 L 492.533,176.177 L 493.221,171.143 L 494.839,169.081 L 496.692,166.56 L 497.859,164.29 L 499.004,161.776 L 500.393,159.943 L 501.56,157.881 L 502.476,158.346 L 503.413,159.943 L 503.643,162.457 L 502.941,164.29 L 502.254,165.887 L 502.254,167.491 L 502.254,169.081 L 502.719,171.372 L 503.643,173.663 L 485.347,183.023z"/>
    <path style="fill: #e4b070" d="M 485.347 183.023 L 492.533,176.177 L 493.221,171.143 L 494.839,169.081 L 496.692,166.56 L 497.859,164.29 L 499.004,161.776 L 500.393,159.943 L 501.56,157.881 L 502.476,158.346 L 503.413,159.943 L 503.643,162.457 L 502.941,164.29 L 502.254,165.887 L 502.254,167.491 L 502.254,169.081 L 502.719,171.372 L 503.643,173.663 L 485.347,183.023z"/>
    <path style="fill: none; fill-opacity:0; stroke-width: 0.02; stroke: #000000" d="M 485.347 183.023 L 492.533,176.177 L 493.221,171.143 L 494.839,169.081 L 496.692,166.56 L 497.859,164.29 L 499.004,161.776 L 500.393,159.943 L 501.56,157.881 L 502.476,158.346 L 503.413,159.943 L 503.643,162.457 L 502.941,164.29 L 502.254,165.887 L 502.254,167.491 L 502.254,169.081 L 502.719,171.372 L 503.643,173.663"/>
    <path style="fill: #888888" d="M 498.088 171.143 L 517.071,171.143 L 528.881,156.513 L 510.815,156.513 L 498.088,171.143z"/>
    <path style="fill: none; fill-opacity:0; stroke-width: 0.02; stroke: #000000" d="M 498.088 171.143 L 517.071,171.143 L 528.847,156.562"/>
    <path style="fill: none; fill-opacity:0; stroke-width: 0.02; stroke: #000000" d="M 528.847 156.513 L 510.815,156.513 L 498.088,171.143"/>
    <path style="fill: #777777" d="M 498.088 171.143 L 498.088,174.802 L 517.071,174.802 L 517.071,171.143 L 498.088,171.143z"/>
    <path style="fill: none; fill-opacity:0; stroke-width: 0.02; stroke: #000000" d="M 498.088 171.143 L 498.088,174.802 L 517.071,174.802 L 517.071,171.143 L 498.088,171.143"/>
    <path style="fill: #555555" d="M 528.881 156.513 L 528.881,159.943 L 517.071,174.802 L 517.071,171.143 L 528.881,156.513z"/>
    <path style="fill: none; fill-opacity:0; stroke-width: 0.02; stroke: #000000" d="M 528.847 159.992 L 517.071,174.802 L 517.071,171.143 L 528.847,156.562"/>
    <path style="fill: #e7ecec" d="M 511.509 157.881 L 525.639,157.881 L 517.314,168.4 L 502.476,168.4 L 511.509,157.881z"/>
    <path style="fill: none; fill-opacity:0; stroke-width: 0.02; stroke: #444444" d="M 511.509 157.881 L 525.639,157.881 L 517.314,168.4 L 502.476,168.4 L 511.509,157.881"/>
    <path style="fill: #bbbbbb" d="M 501.782 169.081 L 503.643,169.081 L 502.476,170.455 L 500.629,170.455 L 501.782,169.081z"/>
    <path style="fill: none; fill-opacity:0; stroke-width: 0.02; stroke: #222222" d="M 501.782 169.081 L 503.643,169.081 L 502.476,170.455 L 500.629,170.455 L 501.782,169.081"/>
    <path style="fill: #bbbbbb" d="M 505.017 169.081 L 506.885,169.081 L 505.726,170.455 L 503.865,170.455 L 505.017,169.081z"/>
    <path style="fill: none; fill-opacity:0; stroke-width: 0.02; stroke: #222222" d="M 505.017 169.081 L 506.885,169.081 L 505.726,170.455 L 503.865,170.455 L 505.017,169.081"/>
    <path style="fill: #bbbbbb" d="M 508.281 169.081 L 510.121,169.081 L 509.197,170.455 L 507.114,170.455 L 508.281,169.081z"/>
    <path style="fill: none; fill-opacity:0; stroke-width: 0.02; stroke: #222222" d="M 508.281 169.081 L 510.121,169.081 L 509.197,170.455 L 507.114,170.455 L 508.281,169.081"/>
    <path style="fill: #bbbbbb" d="M 511.509 169.081 L 513.363,169.081 L 512.447,170.455 L 510.579,170.455 L 511.509,169.081z"/>
    <path style="fill: none; fill-opacity:0; stroke-width: 0.02; stroke: #222222" d="M 511.509 169.081 L 513.363,169.081 L 512.447,170.455 L 510.579,170.455 L 511.509,169.081"/>
    <path style="fill: #bbbbbb" d="M 514.981 169.081 L 516.835,169.081 L 515.675,170.455 L 513.835,170.455 L 514.981,169.081z"/>
    <path style="fill: none; fill-opacity:0; stroke-width: 0.02; stroke: #222222" d="M 514.981 169.081 L 516.835,169.081 L 515.675,170.455 L 513.835,170.455 L 514.981,169.081"/>
  </g>
  <g>
    <path style="fill: #b7b79d" d="M 284.352 103.393 L 284.352,72.54 L 296.806,72.54 L 296.806,103.393 L 284.352,103.393z"/>
    <path style="fill: none; fill-opacity:0; stroke-width: 0.02; stroke: #494936" d="M 284.352 103.393 L 284.352,72.54 L 296.806,72.54 L 296.806,103.393 L 284.352,103.393"/>
    <path style="fill: #a5a585" d="M 296.806 103.393 L 296.806,72.54 L 309.266,72.54 L 309.266,103.393 L 296.806,103.393z"/>
    <path style="fill: none; fill-opacity:0; stroke-width: 0.02; stroke: #494936" d="M 296.806 103.393 L 296.806,72.54 L 309.266,72.54 L 309.266,103.393 L 296.806,103.393"/>
    <path style="fill: #7a7a5a" d="M 315.766 96.8479 L 315.766,66 L 309.266,72.54 L 309.266,103.393 L 315.766,96.8479z"/>
    <path style="fill: none; fill-opacity:0; stroke-width: 0.02; stroke: #494936" d="M 315.766 96.8479 L 315.766,66 L 309.266,72.54 L 309.266,103.393 L 315.766,96.8479"/>
    <path style="fill: #c9c9b6" d="M 290.852 66 L 284.352,72.54 L 309.266,72.54 L 315.766,66 L 290.852,66z"/>
    <path style="fill: none; fill-opacity:0; stroke-width: 0.02; stroke: #494936" d="M 290.852 66 L 284.352,72.54 L 309.266,72.54 L 315.766,66 L 290.852,66"/>
    <path style="fill: none; fill-opacity:0; stroke-width: 0.02; stroke: #7a7a5a" d="M 302.567 66.7449 L 297.551,71.7952"/>
    <path style="fill: #b7b79d" d="M 290.664 103.194 L 284.352,103.194 L 284.362,103.333 L 284.387,103.477 L 284.422,103.616 L 284.481,103.76 L 284.556,103.894 L 284.64,104.034 L 284.749,104.168 L 284.868,104.297 L 284.993,104.421 L 285.142,104.55 L 285.305,104.679 L 285.484,104.788 L 285.673,104.903 L 285.877,105.012 L 286.09,105.121 L 286.314,105.22 L 286.557,105.32 L 286.8,105.399 L 287.058,105.489 L 287.327,105.568 L 287.6,105.633 L 287.883,105.707 L 288.181,105.767 L 288.474,105.816 L 288.772,105.866 L 289.084,105.896 L 289.392,105.935 L 289.71,105.955 L 290.028,105.975 L 290.346,105.985 L 290.664,105.99 L 290.981,105.985 L 291.299,105.975 L 291.617,105.955 L 291.935,105.935 L 292.243,105.896 L 292.556,105.866 L 292.854,105.816 L 293.147,105.767 L 293.444,105.707 L 293.728,105.633 L 294.001,105.568 L 294.269,105.489 L 294.527,105.399 L 294.77,105.32 L 295.014,105.22 L 295.237,105.121 L 295.446,105.012 L 295.654,104.903 L 295.843,104.788 L 296.022,104.679 L 296.186,104.55 L 296.33,104.421 L 296.454,104.297 L 296.578,104.168 L 296.687,104.034 L 296.772,103.894 L 296.841,103.76 L 296.906,103.616 L 296.935,103.477 L 296.965,103.333 L 296.975,103.194 L 290.664,103.194z"/>
    <path style="fill: none; fill-opacity:0; stroke-width: 0.02; stroke: #494936" d="M 284.352 103.194 L 284.362,103.333 L 284.387,103.477 L 284.422,103.616 L 284.481,103.76 L 284.556,103.894 L 284.64,104.034 L 284.749,104.168 L 284.868,104.297 L 284.993,104.421 L 285.142,104.55 L 285.305,104.679 L 285.484,104.788 L 285.673,104.903 L 285.877,105.012 L 286.095,105.121 L 286.318,105.22 L 286.557,105.32 L 286.8,105.399 L 287.063,105.489 L 287.332,105.568 L 287.605,105.633 L 287.883,105.707 L 288.181,105.767 L 288.474,105.816 L 288.777,105.866 L 289.089,105.896 L 289.392,105.935 L 289.71,105.955 L 290.028,105.975 L 290.346,105.985 L 290.669,105.99 L 290.986,105.985 L 291.304,105.975 L 291.622,105.955 L 291.94,105.935 L 292.243,105.896 L 292.556,105.866 L 292.859,105.816 L 293.156,105.767 L 293.449,105.707 L 293.728,105.633 L 294.001,105.568 L 294.269,105.489 L 294.532,105.399 L 294.78,105.32 L 295.014,105.22 L 295.237,105.121 L 295.456,105.012 L 295.659,104.903 L 295.848,104.788 L 296.027,104.679 L 296.191,104.55 L 296.34,104.421 L 296.464,104.297 L 296.588,104.168 L 296.687,104.034 L 296.777,103.894 L 296.856,103.76 L 296.906,103.616 L 296.945,103.477 L 296.975,103.333 L 296.98,103.194"/>
    <path style="fill: #93936c" d="M 293.092 74.9683 L 293.092,76.473 L 293.092,78.1515 L 293.092,80.2073 L 293.092,82.2632 L 293.092,86.9361 L 293.092,91.7927 L 293.092,94.0422 L 293.092,96.2818 L 293.092,98.1539 L 293.092,99.8374 L 293.092,101.337 L 293.092,102.449 L 293.092,103.016 L 293.092,103.393 L 296.806,103.393 L 296.806,72.7238 L 296.623,72.7238 L 296.806,72.9174 L 296.806,73.1012 L 296.255,73.6623 L 295.317,74.2235 L 294.204,74.5959 L 293.092,74.9683z"/>
    <path style="fill: #93936c" d="M 293.092 105.633 L 294.393,105.255 L 295.505,104.699 L 296.061,104.505 L 296.439,104.133 L 296.623,103.577 L 296.806,103.199 L 296.439,103.199 L 296.061,103.199 L 295.505,103.199 L 294.393,103.199 L 293.092,103.199 L 293.092,103.949 L 293.092,104.699 L 293.092,105.071 L 293.092,105.449 L 293.092,105.633z"/>
    <path style="fill: #c9c9b6" d="M 284.908 72.1676 L 284.352,72.7238 L 296.806,72.7238 L 296.806,72.1676 L 284.908,72.1676z"/>
    <path style="fill: #c9c9b6" d="M 290.664 72.5351 L 284.352,72.5351 L 284.362,72.6691 L 284.387,72.8181 L 284.422,72.9522 L 284.481,73.1012 L 284.556,73.2303 L 284.64,73.3743 L 284.749,73.5084 L 284.868,73.6325 L 284.993,73.7616 L 285.142,73.8858 L 285.305,74.0199 L 285.484,74.1291 L 285.673,74.2433 L 285.877,74.3526 L 286.09,74.4618 L 286.314,74.5611 L 286.557,74.6555 L 286.8,74.7449 L 287.058,74.8293 L 287.327,74.9038 L 287.6,74.9733 L 287.883,75.0528 L 288.181,75.1074 L 288.474,75.1521 L 288.772,75.2067 L 289.084,75.2415 L 289.392,75.2762 L 289.71,75.2961 L 290.028,75.316 L 290.346,75.3259 L 290.664,75.3309 L 290.981,75.3259 L 291.299,75.316 L 291.617,75.2961 L 291.935,75.2762 L 292.243,75.2415 L 292.556,75.2067 L 292.854,75.1521 L 293.147,75.1074 L 293.444,75.0528 L 293.728,74.9733 L 294.001,74.9038 L 294.269,74.8293 L 294.527,74.7449 L 294.77,74.6555 L 295.014,74.5611 L 295.237,74.4618 L 295.446,74.3526 L 295.654,74.2433 L 295.843,74.1291 L 296.022,74.0199 L 296.186,73.8858 L 296.33,73.7616 L 296.454,73.6325 L 296.578,73.5084 L 296.687,73.3743 L 296.772,73.2303 L 296.841,73.1012 L 296.906,72.9522 L 296.935,72.8181 L 296.965,72.6691 L 296.975,72.5351 L 290.664,72.5351z"/>
    <path style="fill: none; fill-opacity:0; stroke-width: 0.02; stroke: #494936" d="M 284.352 72.5351 L 284.362,72.6691 L 284.387,72.8181 L 284.422,72.9522 L 284.481,73.1012 L 284.556,73.2303 L 284.64,73.3743 L 284.749,73.5084 L 284.868,73.6325 L 284.993,73.7616 L 285.142,73.8858 L 285.305,74.0199 L 285.484,74.1291 L 285.673,74.2433 L 285.877,74.3526 L 286.095,74.4618 L 286.318,74.5611 L 286.557,74.6555 L 286.8,74.7449 L 287.063,74.8293 L 287.332,74.9038 L 287.605,74.9733 L 287.883,75.0528 L 288.181,75.1074 L 288.474,75.1521 L 288.777,75.2067 L 289.089,75.2415 L 289.392,75.2762 L 289.71,75.2961 L 290.028,75.316 L 290.346,75.3259 L 290.669,75.3309 L 290.986,75.3259 L 291.304,75.316 L 291.622,75.2961 L 291.94,75.2762 L 292.243,75.2415 L 292.556,75.2067 L 292.859,75.1521 L 293.156,75.1074 L 293.449,75.0528 L 293.728,74.9733 L 294.001,74.9038 L 294.269,74.8293 L 294.532,74.7449 L 294.78,74.6555 L 295.014,74.5611 L 295.237,74.4618 L 295.456,74.3526 L 295.659,74.2433 L 295.848,74.1291 L 296.027,74.0199 L 296.191,73.8858 L 296.34,73.7616 L 296.464,73.6325 L 296.588,73.5084 L 296.687,73.3743 L 296.777,73.2303 L 296.856,73.1012 L 296.906,72.9522 L 296.945,72.8181 L 296.975,72.6691 L 296.98,72.5351"/>
    <path style="fill: none; fill-opacity:0; stroke-width: 0.02; stroke: #7a7a5a" d="M 285.469 72.54 L 295.689,72.54"/>
    <path style="fill: #93936c" d="M 296.995 103.199 L 296.995,72.7238 L 299.225,72.7238 L 299.225,103.199 L 296.995,103.199z"/>
    <path style="fill: #93936c" d="M 298.852 81.6971 L 298.852,74.5959 L 307.21,74.5959 L 307.21,81.6971 L 298.852,81.6971z"/>
    <path style="fill: none; fill-opacity:0; stroke-width: 0.02; stroke: #494936" d="M 298.852 81.6971 L 298.852,74.5959 L 307.21,74.5959 L 307.21,81.6971 L 298.852,81.6971"/>
    <path style="fill: #7a7a5a" d="M 299.041 81.6971 L 299.041,74.7846 L 299.225,74.7846 L 299.225,81.6971 L 299.041,81.6971z"/>
    <path style="fill: #d4000a" d="M 284.541 73.1012 L 285.092,73.6623 L 285.092,104.322 L 284.541,103.765 L 284.541,73.1012z"/>
    <path style="fill: none; fill-opacity:0; stroke-width: 0.02; stroke: #494936" d="M 284.352 72.5351 L 284.362,72.6691 L 284.387,72.8181 L 284.422,72.9522 L 284.481,73.1012 L 284.556,73.2303 L 284.64,73.3743 L 284.749,73.5084 L 284.868,73.6325 L 284.993,73.7616 L 285.142,73.8858 L 285.305,74.0199 L 285.484,74.1291 L 285.673,74.2433 L 285.877,74.3526 L 286.095,74.4618 L 286.318,74.5611 L 286.557,74.6555 L 286.8,74.7449 L 287.063,74.8293 L 287.332,74.9038 L 287.605,74.9733 L 287.883,75.0528 L 288.181,75.1074 L 288.474,75.1521 L 288.777,75.2067 L 289.089,75.2415 L 289.392,75.2762 L 289.71,75.2961 L 290.028,75.316 L 290.346,75.3259 L 290.669,75.3309 L 290.986,75.3259 L 291.304,75.316 L 291.622,75.2961 L 291.94,75.2762 L 292.243,75.2415 L 292.556,75.2067 L 292.859,75.1521 L 293.156,75.1074 L 293.449,75.0528 L 293.728,74.9733 L 294.001,74.9038 L 294.269,74.8293 L 294.532,74.7449 L 294.78,74.6555 L 295.014,74.5611 L 295.237,74.4618 L 295.456,74.3526 L 295.659,74.2433 L 295.848,74.1291 L 296.027,74.0199 L 296.191,73.8858 L 296.34,73.7616 L 296.464,73.6325 L 296.588,73.5084 L 296.687,73.3743 L 296.777,73.2303 L 296.856,73.1012 L 296.906,72.9522 L 296.945,72.8181 L 296.975,72.6691 L 296.98,72.5351"/>
    <path style="fill: none; fill-opacity:0; stroke-width: 0.02; stroke: #494936" d="M 284.352 103.274 L 284.362,103.413 L 284.382,103.547 L 284.422,103.686 L 284.471,103.815 L 284.541,103.949 L 284.63,104.083 L 284.724,104.212 L 284.849,104.336 L 284.968,104.456 L 285.117,104.585 L 285.271,104.699 L 285.444,104.813 L 285.628,104.922 L 285.822,105.027 L 286.04,105.131 L 286.259,105.23 L 286.482,105.32 L 286.731,105.414 L 286.984,105.489 L 287.247,105.568 L 287.52,105.633 L 287.788,105.702 L 288.081,105.757 L 288.374,105.816 L 288.672,105.856 L 288.975,105.896 L 289.278,105.935 L 289.591,105.955 L 289.909,105.975 L 290.227,105.99 L 290.544,106 L 290.852,106 L 291.17,105.99 L 291.488,105.975 L 291.801,105.955 L 292.109,105.926 L 292.412,105.891 L 292.719,105.851 L 293.022,105.801 L 293.31,105.752 L 293.584,105.687 L 293.867,105.623 L 294.135,105.553 L 294.398,105.474 L 294.651,105.384 L 294.89,105.305 L 295.118,105.215 L 295.336,105.116 L 295.55,105.007 L 295.739,104.903 L 295.922,104.788 L 296.091,104.679 L 296.255,104.555 L 296.394,104.436 L 296.513,104.312 L 296.628,104.182 L 296.717,104.053 L 296.806,103.929 L 296.876,103.795 L 296.921,103.661 L 296.96,103.522 L 296.975,103.393 L 296.98,103.249"/>
    <path style="fill: #a5a585" d="M 310.006 103.393 L 310.006,81.6971 L 317.44,81.6971 L 317.44,103.393 L 310.006,103.393z"/>
    <path style="fill: none; fill-opacity:0; stroke-width: 0.02; stroke: #494936" d="M 310.006 103.393 L 310.006,81.6971 L 317.44,81.6971 L 317.44,103.393 L 310.006,103.393"/>
    <path style="fill: #a5a585" d="M 317.44 103.393 L 317.44,81.6971 L 324.868,81.6971 L 324.868,103.393 L 317.44,103.393z"/>
    <path style="fill: none; fill-opacity:0; stroke-width: 0.02; stroke: #494936" d="M 317.44 103.393 L 317.44,81.6971 L 324.868,81.6971 L 324.868,103.393 L 317.44,103.393"/>
    <path style="fill: #a5a585" d="M 324.868 103.393 L 324.868,81.6971 L 332.307,81.6971 L 332.307,103.393 L 324.868,103.393z"/>
    <path style="fill: none; fill-opacity:0; stroke-width: 0.02; stroke: #494936" d="M 324.868 103.393 L 324.868,81.6971 L 332.307,81.6971 L 332.307,103.393 L 324.868,103.393"/>
    <path style="fill: #c9c9b6" d="M 313.353 78.3352 L 310.006,81.6971 L 317.44,81.6971 L 320.787,78.3352 L 313.353,78.3352z"/>
    <path style="fill: none; fill-opacity:0; stroke-width: 0.02; stroke: #494936" d="M 313.353 78.3352 L 310.006,81.6971 L 317.44,81.6971 L 320.787,78.3352 L 313.353,78.3352"/>
    <path style="fill: #c9c9b6" d="M 320.787 78.3352 L 317.44,81.6971 L 324.868,81.6971 L 328.21,78.3352 L 320.787,78.3352z"/>
    <path style="fill: none; fill-opacity:0; stroke-width: 0.02; stroke: #494936" d="M 320.787 78.3352 L 317.44,81.6971 L 324.868,81.6971 L 328.21,78.3352 L 320.787,78.3352"/>
    <path style="fill: #c9c9b6" d="M 328.21 78.3352 L 324.868,81.6971 L 332.307,81.6971 L 335.649,78.3352 L 328.21,78.3352z"/>
    <path style="fill: none; fill-opacity:0; stroke-width: 0.02; stroke: #494936" d="M 328.21 78.3352 L 324.868,81.6971 L 332.307,81.6971 L 335.649,78.3352 L 328.21,78.3352"/>
    <path style="fill: #7a7a5a" d="M 335.649 100.21 L 332.307,103.393 L 332.307,81.6971 L 335.649,78.3352 L 335.649,100.21z"/>
    <path style="fill: none; fill-opacity:0; stroke-width: 0.02; stroke: #494936" d="M 335.649 100.21 L 332.307,103.393 L 332.307,81.6971 L 335.649,78.3352 L 335.649,100.21"/>
    <path style="fill: #93936c" d="M 325.986 86.5587 L 325.986,82.6356 L 331.374,82.6356 L 331.374,86.5587 L 325.986,86.5587z"/>
    <path style="fill: none; fill-opacity:0; stroke-width: 0.02; stroke: #494936" d="M 325.986 86.5587 L 325.986,82.6356 L 331.374,82.6356 L 331.374,86.5587 L 325.986,86.5587"/>
    <path style="fill: #93936c" d="M 325.986 91.4202 L 325.986,87.6859 L 331.374,87.6859 L 331.374,91.4202 L 325.986,91.4202z"/>
    <path style="fill: none; fill-opacity:0; stroke-width: 0.02; stroke: #494936" d="M 325.986 91.4202 L 325.986,87.6859 L 331.374,87.6859 L 331.374,91.4202 L 325.986,91.4202"/>
    <path style="fill: #93936c" d="M 325.986 102.077 L 325.986,98.3377 L 331.374,98.3377 L 331.374,102.077 L 325.986,102.077z"/>
    <path style="fill: none; fill-opacity:0; stroke-width: 0.02; stroke: #494936" d="M 325.986 102.077 L 325.986,98.3377 L 331.374,98.3377 L 331.374,102.077 L 325.986,102.077"/>
  </g>
  <text font-size="12.8" style="fill: #000000;text-anchor:middle;font-family:sans-serif;font-style:normal;font-weight:normal" x="303.306" y="46.95">
    <tspan x="303.306" y="46.95">Id Provider</tspan>
    <tspan x="303.306" y="62.95">for Bob</tspan>
  </text>
  <text font-size="12.8" style="fill: #000000;text-anchor:middle;font-family:sans-serif;font-style:normal;font-weight:normal" x="113.533" y="209.9">
    <tspan x="113.533" y="209.9">Bob</tspan>
    <tspan x="113.533" y="225.9">(user)</tspan>
  </text>
  <text font-size="12.8" style="fill: #000000;text-anchor:middle;font-family:sans-serif;font-style:normal;font-weight:normal" x="495.534" y="205.9">
    <tspan x="495.534" y="205.9">Alice</tspan>
    <tspan x="495.534" y="221.9">(relying party)</tspan>
  </text>
  <g>
    <path style="fill: #a5a585" d="M 474.406 316 L 474.406,281.367 L 486.343,281.367 L 486.343,316 L 474.406,316z"/>
    <path style="fill: none; fill-opacity:0; stroke-width: 0.06; stroke: #494936" d="M 474.502 281.367 L 486.343,281.367 L 486.343,316 L 474.502,316"/>
    <path style="fill: #a5a585" d="M 486.343 316 L 486.343,281.367 L 498.272,281.367 L 498.272,316 L 486.343,316z"/>
    <path style="fill: none; fill-opacity:0; stroke-width: 0.06; stroke: #494936" d="M 486.343 316 L 486.343,281.367 L 498.272,281.367 L 498.272,316 L 486.343,316"/>
    <path style="fill: #a5a585" d="M 498.272 316 L 498.272,281.367 L 510.217,281.367 L 510.217,316 L 498.272,316z"/>
    <path style="fill: none; fill-opacity:0; stroke-width: 0.06; stroke: #494936" d="M 498.272 316 L 498.272,281.367 L 510.217,281.367 L 510.217,316 L 498.272,316"/>
    <path style="fill: #c9c9b6" d="M 479.773 276 L 474.406,281.367 L 486.343,281.367 L 491.726,276 L 479.773,276z"/>
    <path style="fill: none; fill-opacity:0; stroke-width: 0.06; stroke: #494936" d="M 479.757 276.008 L 474.502,281.272"/>
    <path style="fill: none; fill-opacity:0; stroke-width: 0.06; stroke: #494936" d="M 474.502 281.367 L 486.343,281.367 L 491.71,276.008"/>
    <path style="fill: #c9c9b6" d="M 491.726 276 L 486.343,281.367 L 498.272,281.367 L 503.647,276 L 491.726,276z"/>
    <path style="fill: none; fill-opacity:0; stroke-width: 0.06; stroke: #494936" d="M 491.71 276.008 L 486.343,281.367 L 498.272,281.367 L 503.64,276.008"/>
    <path style="fill: #c9c9b6" d="M 503.647 276 L 498.272,281.367 L 510.217,281.367 L 515.593,276 L 503.647,276z"/>
    <path style="fill: none; fill-opacity:0; stroke-width: 0.06; stroke: #494936" d="M 503.64 276.008 L 498.272,281.367 L 510.217,281.367 L 515.585,276.008"/>
    <path style="fill: #7a7a5a" d="M 515.593 310.927 L 510.217,316 L 510.217,281.367 L 515.593,276 L 515.593,310.927z"/>
    <path style="fill: none; fill-opacity:0; stroke-width: 0.06; stroke: #494936" d="M 515.593 310.927 L 510.217,316 L 510.217,281.367 L 515.585,276.008"/>
    <path style="fill: none; fill-opacity:0; stroke-width: 0.06; stroke: #494936" d="M 515.593 276.008 L 515.593,310.927"/>
    <path style="fill: #93936c" d="M 500.064 289.132 L 500.064,282.864 L 508.72,282.864 L 508.72,289.132 L 500.064,289.132z"/>
    <path style="fill: none; fill-opacity:0; stroke-width: 0.06; stroke: #494936" d="M 500.064 289.132 L 500.064,282.864 L 508.72,282.864 L 508.72,289.132 L 500.064,289.132"/>
    <path style="fill: #93936c" d="M 500.064 296.888 L 500.064,290.931 L 508.72,290.931 L 508.72,296.888 L 500.064,296.888z"/>
    <path style="fill: none; fill-opacity:0; stroke-width: 0.06; stroke: #494936" d="M 500.064 296.888 L 500.064,290.931 L 508.72,290.931 L 508.72,296.888 L 500.064,296.888"/>
    <path style="fill: #93936c" d="M 500.064 313.898 L 500.064,307.925 L 508.72,307.925 L 508.72,313.898 L 500.064,313.898z"/>
    <path style="fill: none; fill-opacity:0; stroke-width: 0.06; stroke: #494936" d="M 500.064 313.898 L 500.064,307.925 L 508.72,307.925 L 508.72,313.898 L 500.064,313.898"/>
  </g>
  <text font-size="12.8" style="fill: #000000;text-anchor:middle;font-family:sans-serif;font-style:normal;font-weight:normal" x="492.308" y="327.9">
    <tspan x="492.308" y="327.9">Site / Service</tspan>
    <tspan x="492.308" y="343.9">(relying party)</tspan>
  </text>
  <g>
    <path style="fill: none; fill-opacity:0; stroke-width: 2; stroke: #000000" d="M 113.533,198 A 635.23,635.23 0 0 0 480.893,184.488"/>
    <polyline style="fill: none; fill-opacity:0; stroke-width: 2; stroke: #000000" points="475.227,191.791 483.008,183.763 471.917,182.355 "/>
  </g>
  <text font-size="12.8" style="fill: #000000;text-anchor:start;font-family:sans-serif;font-style:normal;font-weight:normal" x="146.882" y="160.513">
    <tspan x="146.882" y="160.513">   Bob signs communication key with</tspan>
    <tspan x="146.882" y="176.513">  certified MailerId signing key, sending it to</tspan>
    <tspan x="146.882" y="192.513">  Alice, together with necessary certificates</tspan>
    <tspan x="146.882" y="208.513">     from Id Provider</tspan>
  </text>
  <g>
    <polyline style="fill: none; fill-opacity:0; stroke-width: 2; stroke: #000000" points="335.649,100.21 517.189,100.21 517.189,149.528 "/>
    <polyline style="fill: none; fill-opacity:0; stroke-width: 2; stroke: #000000" points="512.189,141.764 517.189,151.764 522.189,141.764 "/>
  </g>
  <text font-size="12.8" style="fill: #000000;text-anchor:start;font-family:sans-serif;font-style:normal;font-weight:normal" x="335.648" y="54.22">
    <tspan x="335.648" y="54.22">   Alice gets (GET method) Provider's root certificate,</tspan>
    <tspan x="335.648" y="70.22">   on which trust chain is based, and which is the same</tspan>
    <tspan x="335.648" y="86.22">   for all  users and relying parties.</tspan>
  </text>
</svg>
