<?xml version="1.0" encoding="UTF-8" standalone="no"?>
<!DOCTYPE svg PUBLIC "-//W3C//DTD SVG 1.0//EN" "http://www.w3.org/TR/2001/PR-SVG-20010719/DTD/svg10.dtd">
<svg width="24cm" height="17cm" viewBox="88 21 465 328" xmlns="http://www.w3.org/2000/svg" xmlns:xlink="http://www.w3.org/1999/xlink">
  <g>
    <path style="fill: #e4b070" d="M 96.1184 67.2588 L 96.8058,72.0635 L 98.8957,75.4796 L 101.673,77.3126 L 103.756,77.7709 L 106.533,78 L 109.554,73.2022 L 109.554,56.5037 L 103.999,59.7185 L 96.1184,67.2588z"/>
    <path style="fill: #e4b070" d="M 123.211 47.5956 L 129.932,45.5404 L 133.876,45.3182 L 135.25,45.5404 L 137.097,46.9151 L 138.035,47.5956 L 138.729,49.2064 L 138.035,50.5603 L 136.639,50.7964 L 134.327,50.7964 L 133.876,49.4286 L 132.695,49.4286 L 129.002,50.116 L 127.835,50.5603 L 123.211,47.5956z"/>
    <path style="fill: #e4b070" d="M 123.211 47.5956 L 129.932,45.5404 L 133.876,45.3182 L 135.25,45.5404 L 137.097,46.9151 L 138.035,47.5956 L 138.729,49.2064 L 138.035,50.5603 L 136.639,50.7964 L 134.327,50.7964 L 133.876,49.4286 L 132.695,49.4286 L 129.002,50.116 L 127.835,50.5603 L 123.211,47.5956z"/>
    <path style="fill: none; fill-opacity:0; stroke-width: 0.02; stroke: #000000" d="M 123.211 47.5956 L 129.932,45.5404 L 133.876,45.3182 L 135.25,45.5404 L 137.097,46.9151 L 138.035,47.5956 L 138.729,49.2064 L 138.035,50.5603 L 136.639,50.7964 L 134.327,50.7964 L 133.876,49.4286 L 132.695,49.4286 L 129.002,50.116 L 127.835,50.5603"/>
    <path style="fill: #e4b070" d="M 108.387 54.9137 L 122.975,53.5459 L 132.473,53.0807 L 135.952,52.6225 L 137.097,52.6225 L 137.792,53.775 L 137.556,54.6915 L 136.875,55.8302 L 135.021,56.2885 L 131.786,56.9689 L 128.314,58.8019 L 125.981,60.628 L 121.121,65.2036 L 116.726,69.3071 L 113.942,69.9944 L 106.075,78 L 108.387,54.9137z"/>
    <path style="fill: #e4b070" d="M 108.387 54.9137 L 122.975,53.5459 L 132.473,53.0807 L 135.952,52.6225 L 137.097,52.6225 L 137.792,53.775 L 137.556,54.6915 L 136.875,55.8302 L 135.021,56.2885 L 131.786,56.9689 L 128.314,58.8019 L 125.981,60.628 L 121.121,65.2036 L 116.726,69.3071 L 113.942,69.9944 L 106.075,78 L 108.387,54.9137z"/>
    <path style="fill: none; fill-opacity:0; stroke-width: 0.02; stroke: #000000" d="M 108.387 54.9137 L 122.975,53.5459 L 132.473,53.0807 L 135.952,52.6225 L 137.097,52.6225 L 137.792,53.775 L 137.556,54.6915 L 136.875,55.8302 L 135.021,56.2885 L 131.786,56.9689 L 128.314,58.8019 L 125.981,60.628 L 121.121,65.2036 L 116.726,69.3071 L 113.942,69.9944 L 106.075,78"/>
    <path style="fill: #e4b070" d="M 113.025 48.7481 L 116.497,43.7212 L 120.198,40.5135 L 124.134,38.6804 L 127.835,38.2291 L 132.23,38 L 134.098,38.9165 L 134.098,40.0552 L 133.876,40.9717 L 131.786,41.6591 L 130.397,42.1104 L 127.37,43.0269 L 110.699,58.8019 L 113.025,48.7481z"/>
    <path style="fill: #e4b070" d="M 113.025 48.7481 L 116.497,43.7212 L 120.198,40.5135 L 124.134,38.6804 L 127.835,38.2291 L 132.23,38 L 134.098,38.9165 L 134.098,40.0552 L 133.876,40.9717 L 131.786,41.6591 L 130.397,42.1104 L 127.37,43.0269 L 110.699,58.8019 L 113.025,48.7481z"/>
    <path style="fill: none; fill-opacity:0; stroke-width: 0.02; stroke: #000000" d="M 113.025 48.7481 L 116.497,43.7212 L 120.198,40.5135 L 124.134,38.6804 L 127.835,38.2291 L 132.098,38.0069"/>
    <path style="fill: none; fill-opacity:0; stroke-width: 0.02; stroke: #000000" d="M 132.251 38.0069 L 134.098,38.9165 L 134.098,40.0552 L 133.876,40.9717 L 131.786,41.6591 L 130.397,42.1104 L 127.37,43.0269 L 110.699,58.8019"/>
    <path style="fill: #e4b070" d="M 96.3475 67.0227 L 103.534,60.1767 L 104.221,55.1429 L 105.839,53.0807 L 107.693,50.5603 L 108.859,48.2899 L 110.005,45.7764 L 111.394,43.9434 L 112.56,41.8813 L 113.476,42.3465 L 114.414,43.9434 L 114.643,46.4569 L 113.942,48.2899 L 113.254,49.8868 L 113.254,51.4907 L 113.254,53.0807 L 113.72,55.372 L 114.643,57.6633 L 96.3475,67.0227z"/>
    <path style="fill: #e4b070" d="M 96.3475 67.0227 L 103.534,60.1767 L 104.221,55.1429 L 105.839,53.0807 L 107.693,50.5603 L 108.859,48.2899 L 110.005,45.7764 L 111.394,43.9434 L 112.56,41.8813 L 113.476,42.3465 L 114.414,43.9434 L 114.643,46.4569 L 113.942,48.2899 L 113.254,49.8868 L 113.254,51.4907 L 113.254,53.0807 L 113.72,55.372 L 114.643,57.6633 L 96.3475,67.0227z"/>
    <path style="fill: none; fill-opacity:0; stroke-width: 0.02; stroke: #000000" d="M 96.3475 67.0227 L 103.534,60.1767 L 104.221,55.1429 L 105.839,53.0807 L 107.693,50.5603 L 108.859,48.2899 L 110.005,45.7764 L 111.394,43.9434 L 112.56,41.8813 L 113.476,42.3465 L 114.414,43.9434 L 114.643,46.4569 L 113.942,48.2899 L 113.254,49.8868 L 113.254,51.4907 L 113.254,53.0807 L 113.72,55.372 L 114.643,57.6633"/>
    <path style="fill: #888888" d="M 109.088 55.1429 L 128.071,55.1429 L 139.882,40.5135 L 121.815,40.5135 L 109.088,55.1429z"/>
    <path style="fill: none; fill-opacity:0; stroke-width: 0.02; stroke: #000000" d="M 109.088 55.1429 L 128.071,55.1429 L 139.847,40.5621"/>
    <path style="fill: none; fill-opacity:0; stroke-width: 0.02; stroke: #000000" d="M 139.847 40.5135 L 121.815,40.5135 L 109.088,55.1429"/>
    <path style="fill: #777777" d="M 109.088 55.1429 L 109.088,58.8019 L 128.071,58.8019 L 128.071,55.1429 L 109.088,55.1429z"/>
    <path style="fill: none; fill-opacity:0; stroke-width: 0.02; stroke: #000000" d="M 109.088 55.1429 L 109.088,58.8019 L 128.071,58.8019 L 128.071,55.1429 L 109.088,55.1429"/>
    <path style="fill: #555555" d="M 139.882 40.5135 L 139.882,43.9434 L 128.071,58.8019 L 128.071,55.1429 L 139.882,40.5135z"/>
    <path style="fill: none; fill-opacity:0; stroke-width: 0.02; stroke: #000000" d="M 139.847 43.992 L 128.071,58.8019 L 128.071,55.1429 L 139.847,40.5621"/>
    <path style="fill: #e7ecec" d="M 122.51 41.8813 L 136.639,41.8813 L 128.314,52.4003 L 113.476,52.4003 L 122.51,41.8813z"/>
    <path style="fill: none; fill-opacity:0; stroke-width: 0.02; stroke: #444444" d="M 122.51 41.8813 L 136.639,41.8813 L 128.314,52.4003 L 113.476,52.4003 L 122.51,41.8813"/>
    <path style="fill: #bbbbbb" d="M 112.782 53.0807 L 114.643,53.0807 L 113.476,54.4555 L 111.63,54.4555 L 112.782,53.0807z"/>
    <path style="fill: none; fill-opacity:0; stroke-width: 0.02; stroke: #222222" d="M 112.782 53.0807 L 114.643,53.0807 L 113.476,54.4555 L 111.63,54.4555 L 112.782,53.0807"/>
    <path style="fill: #bbbbbb" d="M 116.018 53.0807 L 117.885,53.0807 L 116.726,54.4555 L 114.865,54.4555 L 116.018,53.0807z"/>
    <path style="fill: none; fill-opacity:0; stroke-width: 0.02; stroke: #222222" d="M 116.018 53.0807 L 117.885,53.0807 L 116.726,54.4555 L 114.865,54.4555 L 116.018,53.0807"/>
    <path style="fill: #bbbbbb" d="M 119.281 53.0807 L 121.121,53.0807 L 120.198,54.4555 L 118.115,54.4555 L 119.281,53.0807z"/>
    <path style="fill: none; fill-opacity:0; stroke-width: 0.02; stroke: #222222" d="M 119.281 53.0807 L 121.121,53.0807 L 120.198,54.4555 L 118.115,54.4555 L 119.281,53.0807"/>
    <path style="fill: #bbbbbb" d="M 122.51 53.0807 L 124.363,53.0807 L 123.447,54.4555 L 121.579,54.4555 L 122.51,53.0807z"/>
    <path style="fill: none; fill-opacity:0; stroke-width: 0.02; stroke: #222222" d="M 122.51 53.0807 L 124.363,53.0807 L 123.447,54.4555 L 121.579,54.4555 L 122.51,53.0807"/>
    <path style="fill: #bbbbbb" d="M 125.981 53.0807 L 127.835,53.0807 L 126.676,54.4555 L 124.836,54.4555 L 125.981,53.0807z"/>
    <path style="fill: none; fill-opacity:0; stroke-width: 0.02; stroke: #222222" d="M 125.981 53.0807 L 127.835,53.0807 L 126.676,54.4555 L 124.836,54.4555 L 125.981,53.0807"/>
  </g>
  <g>
    <path style="fill: #b7b79d" d="M 491.352 73.3929 L 491.352,42.54 L 503.806,42.54 L 503.806,73.3929 L 491.352,73.3929z"/>
    <path style="fill: none; fill-opacity:0; stroke-width: 0.02; stroke: #494936" d="M 491.352 73.3929 L 491.352,42.54 L 503.806,42.54 L 503.806,73.3929 L 491.352,73.3929"/>
    <path style="fill: #a5a585" d="M 503.806 73.3929 L 503.806,42.54 L 516.266,42.54 L 516.266,73.3929 L 503.806,73.3929z"/>
    <path style="fill: none; fill-opacity:0; stroke-width: 0.02; stroke: #494936" d="M 503.806 73.3929 L 503.806,42.54 L 516.266,42.54 L 516.266,73.3929 L 503.806,73.3929"/>
    <path style="fill: #7a7a5a" d="M 522.766 66.8479 L 522.766,36 L 516.266,42.54 L 516.266,73.3929 L 522.766,66.8479z"/>
    <path style="fill: none; fill-opacity:0; stroke-width: 0.02; stroke: #494936" d="M 522.766 66.8479 L 522.766,36 L 516.266,42.54 L 516.266,73.3929 L 522.766,66.8479"/>
    <path style="fill: #c9c9b6" d="M 497.852 36 L 491.352,42.54 L 516.266,42.54 L 522.766,36 L 497.852,36z"/>
    <path style="fill: none; fill-opacity:0; stroke-width: 0.02; stroke: #494936" d="M 497.852 36 L 491.352,42.54 L 516.266,42.54 L 522.766,36 L 497.852,36"/>
    <path style="fill: none; fill-opacity:0; stroke-width: 0.02; stroke: #7a7a5a" d="M 509.567 36.7449 L 504.551,41.7952"/>
    <path style="fill: #b7b79d" d="M 497.664 73.1943 L 491.352,73.1943 L 491.362,73.3333 L 491.387,73.4773 L 491.422,73.6164 L 491.481,73.7604 L 491.556,73.8945 L 491.64,74.0335 L 491.749,74.1676 L 491.868,74.2967 L 491.993,74.4209 L 492.142,74.55 L 492.305,74.6791 L 492.484,74.7883 L 492.673,74.9025 L 492.877,75.0118 L 493.09,75.121 L 493.314,75.2204 L 493.557,75.3197 L 493.8,75.3991 L 494.058,75.4885 L 494.327,75.568 L 494.6,75.6325 L 494.883,75.707 L 495.181,75.7666 L 495.474,75.8163 L 495.772,75.8659 L 496.084,75.8957 L 496.392,75.9354 L 496.71,75.9553 L 497.028,75.9752 L 497.346,75.9851 L 497.664,75.9901 L 497.981,75.9851 L 498.299,75.9752 L 498.617,75.9553 L 498.935,75.9354 L 499.243,75.8957 L 499.556,75.8659 L 499.854,75.8163 L 500.147,75.7666 L 500.444,75.707 L 500.728,75.6325 L 501.001,75.568 L 501.269,75.4885 L 501.527,75.3991 L 501.77,75.3197 L 502.014,75.2204 L 502.237,75.121 L 502.446,75.0118 L 502.654,74.9025 L 502.843,74.7883 L 503.022,74.6791 L 503.186,74.55 L 503.33,74.4209 L 503.454,74.2967 L 503.578,74.1676 L 503.687,74.0335 L 503.772,73.8945 L 503.841,73.7604 L 503.906,73.6164 L 503.935,73.4773 L 503.965,73.3333 L 503.975,73.1943 L 497.664,73.1943z"/>
    <path style="fill: none; fill-opacity:0; stroke-width: 0.02; stroke: #494936" d="M 491.352 73.1943 L 491.362,73.3333 L 491.387,73.4773 L 491.422,73.6164 L 491.481,73.7604 L 491.556,73.8945 L 491.64,74.0335 L 491.749,74.1676 L 491.868,74.2967 L 491.993,74.4209 L 492.142,74.55 L 492.305,74.6791 L 492.484,74.7883 L 492.673,74.9025 L 492.877,75.0118 L 493.095,75.121 L 493.318,75.2204 L 493.557,75.3197 L 493.8,75.3991 L 494.063,75.4885 L 494.332,75.568 L 494.605,75.6325 L 494.883,75.707 L 495.181,75.7666 L 495.474,75.8163 L 495.777,75.8659 L 496.089,75.8957 L 496.392,75.9354 L 496.71,75.9553 L 497.028,75.9752 L 497.346,75.9851 L 497.669,75.9901 L 497.986,75.9851 L 498.304,75.9752 L 498.622,75.9553 L 498.94,75.9354 L 499.243,75.8957 L 499.556,75.8659 L 499.859,75.8163 L 500.156,75.7666 L 500.449,75.707 L 500.728,75.6325 L 501.001,75.568 L 501.269,75.4885 L 501.532,75.3991 L 501.78,75.3197 L 502.014,75.2204 L 502.237,75.121 L 502.456,75.0118 L 502.659,74.9025 L 502.848,74.7883 L 503.027,74.6791 L 503.191,74.55 L 503.34,74.4209 L 503.464,74.2967 L 503.588,74.1676 L 503.687,74.0335 L 503.777,73.8945 L 503.856,73.7604 L 503.906,73.6164 L 503.945,73.4773 L 503.975,73.3333 L 503.98,73.1943"/>
    <path style="fill: #93936c" d="M 500.092 44.9683 L 500.092,46.473 L 500.092,48.1515 L 500.092,50.2073 L 500.092,52.2632 L 500.092,56.9361 L 500.092,61.7927 L 500.092,64.0422 L 500.092,66.2818 L 500.092,68.1539 L 500.092,69.8374 L 500.092,71.3371 L 500.092,72.4494 L 500.092,73.0155 L 500.092,73.3929 L 503.806,73.3929 L 503.806,42.7238 L 503.623,42.7238 L 503.806,42.9174 L 503.806,43.1012 L 503.255,43.6623 L 502.317,44.2235 L 501.204,44.5959 L 500.092,44.9683z"/>
    <path style="fill: #93936c" d="M 500.092 75.6325 L 501.393,75.2551 L 502.505,74.6989 L 503.061,74.5053 L 503.439,74.1328 L 503.623,73.5767 L 503.806,73.1993 L 503.439,73.1993 L 503.061,73.1993 L 502.505,73.1993 L 501.393,73.1993 L 500.092,73.1993 L 500.092,73.9491 L 500.092,74.6989 L 500.092,75.0714 L 500.092,75.4488 L 500.092,75.6325z"/>
    <path style="fill: #c9c9b6" d="M 491.908 42.1676 L 491.352,42.7238 L 503.806,42.7238 L 503.806,42.1676 L 491.908,42.1676z"/>
    <path style="fill: #c9c9b6" d="M 497.664 42.5351 L 491.352,42.5351 L 491.362,42.6691 L 491.387,42.8181 L 491.422,42.9522 L 491.481,43.1012 L 491.556,43.2303 L 491.64,43.3743 L 491.749,43.5084 L 491.868,43.6325 L 491.993,43.7616 L 492.142,43.8858 L 492.305,44.0199 L 492.484,44.1291 L 492.673,44.2433 L 492.877,44.3526 L 493.09,44.4618 L 493.314,44.5611 L 493.557,44.6555 L 493.8,44.7449 L 494.058,44.8293 L 494.327,44.9038 L 494.6,44.9733 L 494.883,45.0528 L 495.181,45.1074 L 495.474,45.1521 L 495.772,45.2067 L 496.084,45.2415 L 496.392,45.2762 L 496.71,45.2961 L 497.028,45.316 L 497.346,45.3259 L 497.664,45.3309 L 497.981,45.3259 L 498.299,45.316 L 498.617,45.2961 L 498.935,45.2762 L 499.243,45.2415 L 499.556,45.2067 L 499.854,45.1521 L 500.147,45.1074 L 500.444,45.0528 L 500.728,44.9733 L 501.001,44.9038 L 501.269,44.8293 L 501.527,44.7449 L 501.77,44.6555 L 502.014,44.5611 L 502.237,44.4618 L 502.446,44.3526 L 502.654,44.2433 L 502.843,44.1291 L 503.022,44.0199 L 503.186,43.8858 L 503.33,43.7616 L 503.454,43.6325 L 503.578,43.5084 L 503.687,43.3743 L 503.772,43.2303 L 503.841,43.1012 L 503.906,42.9522 L 503.935,42.8181 L 503.965,42.6691 L 503.975,42.5351 L 497.664,42.5351z"/>
    <path style="fill: none; fill-opacity:0; stroke-width: 0.02; stroke: #494936" d="M 491.352 42.5351 L 491.362,42.6691 L 491.387,42.8181 L 491.422,42.9522 L 491.481,43.1012 L 491.556,43.2303 L 491.64,43.3743 L 491.749,43.5084 L 491.868,43.6325 L 491.993,43.7616 L 492.142,43.8858 L 492.305,44.0199 L 492.484,44.1291 L 492.673,44.2433 L 492.877,44.3526 L 493.095,44.4618 L 493.318,44.5611 L 493.557,44.6555 L 493.8,44.7449 L 494.063,44.8293 L 494.332,44.9038 L 494.605,44.9733 L 494.883,45.0528 L 495.181,45.1074 L 495.474,45.1521 L 495.777,45.2067 L 496.089,45.2415 L 496.392,45.2762 L 496.71,45.2961 L 497.028,45.316 L 497.346,45.3259 L 497.669,45.3309 L 497.986,45.3259 L 498.304,45.316 L 498.622,45.2961 L 498.94,45.2762 L 499.243,45.2415 L 499.556,45.2067 L 499.859,45.1521 L 500.156,45.1074 L 500.449,45.0528 L 500.728,44.9733 L 501.001,44.9038 L 501.269,44.8293 L 501.532,44.7449 L 501.78,44.6555 L 502.014,44.5611 L 502.237,44.4618 L 502.456,44.3526 L 502.659,44.2433 L 502.848,44.1291 L 503.027,44.0199 L 503.191,43.8858 L 503.34,43.7616 L 503.464,43.6325 L 503.588,43.5084 L 503.687,43.3743 L 503.777,43.2303 L 503.856,43.1012 L 503.906,42.9522 L 503.945,42.8181 L 503.975,42.6691 L 503.98,42.5351"/>
    <path style="fill: none; fill-opacity:0; stroke-width: 0.02; stroke: #7a7a5a" d="M 492.469 42.54 L 502.689,42.54"/>
    <path style="fill: #93936c" d="M 503.995 73.1993 L 503.995,42.7238 L 506.225,42.7238 L 506.225,73.1993 L 503.995,73.1993z"/>
    <path style="fill: #93936c" d="M 505.852 51.6971 L 505.852,44.5959 L 514.21,44.5959 L 514.21,51.6971 L 505.852,51.6971z"/>
    <path style="fill: none; fill-opacity:0; stroke-width: 0.02; stroke: #494936" d="M 505.852 51.6971 L 505.852,44.5959 L 514.21,44.5959 L 514.21,51.6971 L 505.852,51.6971"/>
    <path style="fill: #7a7a5a" d="M 506.041 51.6971 L 506.041,44.7846 L 506.225,44.7846 L 506.225,51.6971 L 506.041,51.6971z"/>
    <path style="fill: #d4000a" d="M 491.541 43.1012 L 492.092,43.6623 L 492.092,74.3215 L 491.541,73.7654 L 491.541,43.1012z"/>
    <path style="fill: none; fill-opacity:0; stroke-width: 0.02; stroke: #494936" d="M 491.352 42.5351 L 491.362,42.6691 L 491.387,42.8181 L 491.422,42.9522 L 491.481,43.1012 L 491.556,43.2303 L 491.64,43.3743 L 491.749,43.5084 L 491.868,43.6325 L 491.993,43.7616 L 492.142,43.8858 L 492.305,44.0199 L 492.484,44.1291 L 492.673,44.2433 L 492.877,44.3526 L 493.095,44.4618 L 493.318,44.5611 L 493.557,44.6555 L 493.8,44.7449 L 494.063,44.8293 L 494.332,44.9038 L 494.605,44.9733 L 494.883,45.0528 L 495.181,45.1074 L 495.474,45.1521 L 495.777,45.2067 L 496.089,45.2415 L 496.392,45.2762 L 496.71,45.2961 L 497.028,45.316 L 497.346,45.3259 L 497.669,45.3309 L 497.986,45.3259 L 498.304,45.316 L 498.622,45.2961 L 498.94,45.2762 L 499.243,45.2415 L 499.556,45.2067 L 499.859,45.1521 L 500.156,45.1074 L 500.449,45.0528 L 500.728,44.9733 L 501.001,44.9038 L 501.269,44.8293 L 501.532,44.7449 L 501.78,44.6555 L 502.014,44.5611 L 502.237,44.4618 L 502.456,44.3526 L 502.659,44.2433 L 502.848,44.1291 L 503.027,44.0199 L 503.191,43.8858 L 503.34,43.7616 L 503.464,43.6325 L 503.588,43.5084 L 503.687,43.3743 L 503.777,43.2303 L 503.856,43.1012 L 503.906,42.9522 L 503.945,42.8181 L 503.975,42.6691 L 503.98,42.5351"/>
    <path style="fill: none; fill-opacity:0; stroke-width: 0.02; stroke: #494936" d="M 491.352 73.2737 L 491.362,73.4128 L 491.382,73.5469 L 491.422,73.6859 L 491.471,73.815 L 491.541,73.9491 L 491.63,74.0832 L 491.724,74.2123 L 491.849,74.3364 L 491.968,74.4556 L 492.117,74.5847 L 492.271,74.6989 L 492.444,74.8132 L 492.628,74.9224 L 492.822,75.0267 L 493.04,75.131 L 493.259,75.2303 L 493.482,75.3197 L 493.731,75.414 L 493.984,75.4885 L 494.247,75.568 L 494.52,75.6325 L 494.788,75.702 L 495.081,75.7567 L 495.374,75.8163 L 495.672,75.856 L 495.975,75.8957 L 496.278,75.9354 L 496.591,75.9553 L 496.909,75.9752 L 497.227,75.9901 L 497.544,76 L 497.852,76 L 498.17,75.9901 L 498.488,75.9752 L 498.801,75.9553 L 499.109,75.9255 L 499.412,75.8908 L 499.719,75.851 L 500.022,75.8014 L 500.31,75.7517 L 500.584,75.6872 L 500.867,75.6226 L 501.135,75.5531 L 501.398,75.4736 L 501.651,75.3842 L 501.89,75.3048 L 502.118,75.2154 L 502.336,75.1161 L 502.55,75.0068 L 502.739,74.9025 L 502.922,74.7883 L 503.091,74.6791 L 503.255,74.5549 L 503.394,74.4358 L 503.513,74.3116 L 503.628,74.1825 L 503.717,74.0534 L 503.806,73.9292 L 503.876,73.7952 L 503.921,73.6611 L 503.96,73.522 L 503.975,73.3929 L 503.98,73.2489"/>
    <path style="fill: #a5a585" d="M 517.006 73.3929 L 517.006,51.6971 L 524.44,51.6971 L 524.44,73.3929 L 517.006,73.3929z"/>
    <path style="fill: none; fill-opacity:0; stroke-width: 0.02; stroke: #494936" d="M 517.006 73.3929 L 517.006,51.6971 L 524.44,51.6971 L 524.44,73.3929 L 517.006,73.3929"/>
    <path style="fill: #a5a585" d="M 524.44 73.3929 L 524.44,51.6971 L 531.868,51.6971 L 531.868,73.3929 L 524.44,73.3929z"/>
    <path style="fill: none; fill-opacity:0; stroke-width: 0.02; stroke: #494936" d="M 524.44 73.3929 L 524.44,51.6971 L 531.868,51.6971 L 531.868,73.3929 L 524.44,73.3929"/>
    <path style="fill: #a5a585" d="M 531.868 73.3929 L 531.868,51.6971 L 539.307,51.6971 L 539.307,73.3929 L 531.868,73.3929z"/>
    <path style="fill: none; fill-opacity:0; stroke-width: 0.02; stroke: #494936" d="M 531.868 73.3929 L 531.868,51.6971 L 539.307,51.6971 L 539.307,73.3929 L 531.868,73.3929"/>
    <path style="fill: #c9c9b6" d="M 520.353 48.3352 L 517.006,51.6971 L 524.44,51.6971 L 527.787,48.3352 L 520.353,48.3352z"/>
    <path style="fill: none; fill-opacity:0; stroke-width: 0.02; stroke: #494936" d="M 520.353 48.3352 L 517.006,51.6971 L 524.44,51.6971 L 527.787,48.3352 L 520.353,48.3352"/>
    <path style="fill: #c9c9b6" d="M 527.787 48.3352 L 524.44,51.6971 L 531.868,51.6971 L 535.21,48.3352 L 527.787,48.3352z"/>
    <path style="fill: none; fill-opacity:0; stroke-width: 0.02; stroke: #494936" d="M 527.787 48.3352 L 524.44,51.6971 L 531.868,51.6971 L 535.21,48.3352 L 527.787,48.3352"/>
    <path style="fill: #c9c9b6" d="M 535.21 48.3352 L 531.868,51.6971 L 539.307,51.6971 L 542.649,48.3352 L 535.21,48.3352z"/>
    <path style="fill: none; fill-opacity:0; stroke-width: 0.02; stroke: #494936" d="M 535.21 48.3352 L 531.868,51.6971 L 539.307,51.6971 L 542.649,48.3352 L 535.21,48.3352"/>
    <path style="fill: #7a7a5a" d="M 542.649 70.2098 L 539.307,73.3929 L 539.307,51.6971 L 542.649,48.3352 L 542.649,70.2098z"/>
    <path style="fill: none; fill-opacity:0; stroke-width: 0.02; stroke: #494936" d="M 542.649 70.2098 L 539.307,73.3929 L 539.307,51.6971 L 542.649,48.3352 L 542.649,70.2098"/>
    <path style="fill: #93936c" d="M 532.986 56.5587 L 532.986,52.6356 L 538.374,52.6356 L 538.374,56.5587 L 532.986,56.5587z"/>
    <path style="fill: none; fill-opacity:0; stroke-width: 0.02; stroke: #494936" d="M 532.986 56.5587 L 532.986,52.6356 L 538.374,52.6356 L 538.374,56.5587 L 532.986,56.5587"/>
    <path style="fill: #93936c" d="M 532.986 61.4202 L 532.986,57.6859 L 538.374,57.6859 L 538.374,61.4202 L 532.986,61.4202z"/>
    <path style="fill: none; fill-opacity:0; stroke-width: 0.02; stroke: #494936" d="M 532.986 61.4202 L 532.986,57.6859 L 538.374,57.6859 L 538.374,61.4202 L 532.986,61.4202"/>
    <path style="fill: #93936c" d="M 532.986 72.077 L 532.986,68.3377 L 538.374,68.3377 L 538.374,72.077 L 532.986,72.077z"/>
    <path style="fill: none; fill-opacity:0; stroke-width: 0.02; stroke: #494936" d="M 532.986 72.077 L 532.986,68.3377 L 538.374,68.3377 L 538.374,72.077 L 532.986,72.077"/>
  </g>
  <text font-size="12.8" style="fill: #000000;text-anchor:middle;font-family:sans-serif;font-style:normal;font-weight:normal" x="510.306" y="32.95">
    <tspan x="510.306" y="32.95">Site / Service</tspan>
  </text>
  <text font-size="12.8" style="fill: #000000;text-anchor:end;font-family:sans-serif;font-style:normal;font-weight:normal" x="132.251" y="34.95">
    <tspan x="132.251" y="34.95">User</tspan>
  </text>
  <line style="fill: none; fill-opacity:0; stroke-width: 2; stroke-dasharray: 4; stroke: #000000" x1="96.1184" y1="72.0636" x2="96" y2="290.5"/>
  <line style="fill: none; fill-opacity:0; stroke-width: 2; stroke-dasharray: 4; stroke: #000000" x1="501.134" y1="76" x2="502" y2="290.5"/>
  <g>
    <ellipse style="fill: #ffffff" cx="97" cy="99" rx="6.5" ry="6.5"/>
    <ellipse style="fill: none; fill-opacity:0; stroke-width: 2; stroke: #000000" cx="97" cy="99" rx="6.5" ry="6.5"/>
  </g>
  <g>
    <ellipse style="fill: #ffffff" cx="501" cy="151" rx="6.5" ry="6.5"/>
    <ellipse style="fill: none; fill-opacity:0; stroke-width: 2; stroke: #000000" cx="501" cy="151" rx="6.5" ry="6.5"/>
  </g>
  <g>
    <line style="fill: none; fill-opacity:0; stroke-width: 2; stroke: #000000" x1="103.5" y1="99" x2="491.964" y2="145.868"/>
    <polyline style="fill: none; fill-opacity:0; stroke-width: 2; stroke: #000000" points="483.657,149.902 494.184,146.136 484.855,139.974 "/>
  </g>
  <text font-size="12.8" style="fill: #000000;text-anchor:start;font-family:sans-serif;font-style:normal;font-weight:normal" x="103.5" y="99">
    <tspan x="103.5" y="99">      Starting session for user</tspan>
  </text>
  <g>
    <ellipse style="fill: #ffffff" cx="97" cy="155" rx="6.5" ry="6.5"/>
    <ellipse style="fill: none; fill-opacity:0; stroke-width: 2; stroke: #000000" cx="97" cy="155" rx="6.5" ry="6.5"/>
  </g>
  <g>
    <line style="fill: none; fill-opacity:0; stroke-width: 2; stroke: #000000" x1="494.5" y1="151" x2="107.972" y2="154.954"/>
    <polyline style="fill: none; fill-opacity:0; stroke-width: 2; stroke: #000000" points="115.684,149.875 105.736,154.977 115.787,159.875 "/>
  </g>
  <text font-size="12.8" style="fill: #000000;text-anchor:end;font-family:sans-serif;font-style:normal;font-weight:normal" x="496.404" y="167.496">
    <tspan x="496.404" y="167.496">Sending cryptographic challenge, which   </tspan>
    <tspan x="496.404" y="183.496">is a session key, encrypted to user's public   </tspan>
    <tspan x="496.404" y="199.496">key that site has on its file for a given user,  </tspan>
    <tspan x="496.404" y="215.496">without crypto authentication part.  </tspan>
  </text>
  <g>
    <ellipse style="fill: #ffffff" cx="97" cy="246" rx="6.5" ry="6.5"/>
    <ellipse style="fill: none; fill-opacity:0; stroke-width: 2; stroke: #000000" cx="97" cy="246" rx="6.5" ry="6.5"/>
  </g>
  <g>
    <ellipse style="fill: #ffffff" cx="502" cy="297" rx="6.5" ry="6.5"/>
    <ellipse style="fill: none; fill-opacity:0; stroke-width: 2; stroke: #000000" cx="502" cy="297" rx="6.5" ry="6.5"/>
  </g>
  <g>
    <line style="fill: none; fill-opacity:0; stroke-width: 2; stroke: #000000" x1="103.5" y1="246" x2="492.963" y2="291.881"/>
    <polyline style="fill: none; fill-opacity:0; stroke-width: 2; stroke: #000000" points="484.667,295.938 495.183,292.142 485.837,286.007 "/>
  </g>
  <text font-size="12.8" style="fill: #000000;text-anchor:start;font-family:sans-serif;font-style:normal;font-weight:normal" x="101.596" y="241.404">
    <tspan x="101.596" y="241.404">       Sending crypto object, which proves knowledge</tspan>
    <tspan x="101.596" y="257.404">                                           of a proper user key</tspan>
  </text>
  <g>
    <line style="fill: none; fill-opacity:0; stroke-width: 2; stroke: #000000" x1="495.5" y1="297" x2="106.972" y2="297"/>
    <polyline style="fill: none; fill-opacity:0; stroke-width: 2; stroke: #000000" points="114.736,292 104.736,297 114.736,302 "/>
  </g>
  <g>
    <ellipse style="fill: #ffffff" cx="96" cy="297" rx="6.5" ry="6.5"/>
    <ellipse style="fill: none; fill-opacity:0; stroke-width: 2; stroke: #000000" cx="96" cy="297" rx="6.5" ry="6.5"/>
  </g>
  <text font-size="12.8" style="fill: #000000;text-anchor:end;font-family:sans-serif;font-style:normal;font-weight:normal" x="497.404" y="313.496">
    <tspan x="497.404" y="313.496">Sending authentication part of crypto challenge   </tspan>
    <tspan x="497.404" y="329.496">from initial request. This proves to the user that   </tspan>
    <tspan x="497.404" y="345.496">site indeed knows user's login key.   </tspan>
  </text>
</svg>
